<svg xmlns="http://www.w3.org/2000/svg" width="48" height="48" viewBox="0 0 48 48"><g fill="none" stroke-width="3"><path fill="#8fbffa" d="M29 8.5a5.5 5.5 0 1 0 11 0a5.5 5.5 0 1 0-11 0"/><path fill="#fff" fill-rule="evenodd" d="M29 34.5C29 28.701 24.299 24 18.5 24S8 28.701 8 34.5S12.701 45 18.5 45S29 40.299 29 34.5m-6 0a4.5 4.5 0 1 0-9 0a4.5 4.5 0 0 0 9 0" clip-rule="evenodd"/><path fill="#8fbffa" d="M31.083 13.37a2.974 2.974 0 0 1 1.564 3.657l-2.1 6.208c-.1.297.094.613.404.665c2.563.43 5.717 1.43 7.8 2.15a2.87 2.87 0 0 1 1.884 3.178c-.466 2.931-1.345 8.163-2.426 13.223c-.23 1.08-1.054 1.938-2.156 2.021c-.63.048-1.403.062-2.275-.01c-1.019-.085-1.7-1.029-1.6-2.046l.832-8.434a.5.5 0 0 0-.447-.546l-3.661-.376C28.2 27.942 23.81 24 18.5 24q-.334 0-.664.02c.67-2.187 1.493-4.7 2.458-7.342l-1.508-.57a.5.5 0 0 0-.511.097l-6.182 5.579c-.552.497-1.292.817-1.977.53c-.756-.314-1.445-.89-1.981-1.439c-.77-.786-.811-1.979-.233-2.914c1.344-2.175 4.12-6.24 7.844-9.444c.764-.657 1.827-.814 2.77-.457c2.223.84 6.742 2.625 12.567 5.31"/><path fill="#8fbffa" d="M18.5 30a4.5 4.5 0 1 1 0 9a4.5 4.5 0 0 1 0-9"/><path stroke="#2859c5" stroke-linecap="round" stroke-linejoin="round" d="M29 8.5a5.5 5.5 0 1 0 11 0a5.5 5.5 0 1 0-11 0m4.238 25.27l-.852 9.371c-.046.503.29.966.79 1.039c1.75.256 3.17.1 3.92-.032a.89.89 0 0 0 .707-.71c1.096-5.165 1.996-10.92 2.462-14.087a2.89 2.89 0 0 0-1.98-3.19c-2.164-.689-5.414-1.654-7.84-2.07a.51.51 0 0 1-.403-.655l1.977-6.262a2.97 2.97 0 0 0-1.541-3.579c-5.31-2.533-9.582-4.273-11.753-5.12c-.968-.378-2.061-.208-2.839.48c-3.84 3.395-6.837 7.65-7.982 9.377c-.317.477-.312 1.09.048 1.536c.568.702 1.518 1.693 2.583 2.046c.48.159.977-.06 1.347-.403l5.986-5.559a.5.5 0 0 1 .597-.062l2.12 1.272c-.324.921-.63 1.826-.919 2.706"/><path stroke="#2859c5" stroke-linecap="round" stroke-linejoin="round" d="M18.5 24C24.299 24 29 28.701 29 34.5S24.299 45 18.5 45S8 40.299 8 34.5S12.701 24 18.5 24"/><path stroke="#2859c5" stroke-linecap="round" stroke-linejoin="round" d="M18.5 30a4.5 4.5 0 1 1 0 9a4.5 4.5 0 0 1 0-9"/></g></svg>