<svg xmlns="http://www.w3.org/2000/svg" width="48" height="48" viewBox="0 0 48 48"><g fill="none" stroke-width="3"><path fill="#8fbffa" d="M3.052 16.555c-1.382-.662-1.382-2.448 0-3.11c1.812-.868 4.519-2.1 8.348-3.695c5.32-2.216 8.954-3.53 10.905-4.196a5.23 5.23 0 0 1 3.39 0c1.95.666 5.586 1.98 10.905 4.196c3.83 1.595 6.536 2.827 8.349 3.695c1.38.662 1.38 2.448 0 3.11c-1.813.868-4.52 2.1-8.349 3.695c-5.32 2.216-8.954 3.53-10.905 4.196a5.23 5.23 0 0 1-3.39 0c-1.95-.666-5.586-1.98-10.905-4.196c-3.83-1.596-6.536-2.827-8.348-3.695"/><path fill="#8fbffa" d="M11.102 20.126A75 75 0 0 0 11 24.167c0 3.094.159 5.037.315 6.2c.137 1.016.719 1.88 1.627 2.355C14.698 33.642 18.265 35 24 35s9.302-1.358 11.058-2.278c.908-.475 1.49-1.339 1.627-2.354c.156-1.164.315-3.107.315-6.2a75 75 0 0 0-.102-4.042l-.298.124c-5.32 2.217-8.954 3.53-10.905 4.197a5.23 5.23 0 0 1-3.39 0c-1.95-.666-5.586-1.98-10.905-4.197z"/><path fill="#fff" d="M8 40a3 3 0 1 1-6 0a3 3 0 1 1 6 0"/><path stroke="#2859c5" stroke-linecap="round" stroke-linejoin="round" d="M5 18v19M3.052 16.555c-1.382-.662-1.382-2.448 0-3.11c1.812-.868 4.519-2.1 8.348-3.695c5.32-2.216 8.954-3.53 10.905-4.196a5.23 5.23 0 0 1 3.39 0c1.95.666 5.586 1.98 10.905 4.196c3.83 1.595 6.536 2.827 8.349 3.695c1.38.662 1.38 2.448 0 3.11c-1.813.868-4.52 2.1-8.349 3.695c-5.32 2.216-8.954 3.53-10.905 4.196a5.23 5.23 0 0 1-3.39 0c-1.95-.666-5.586-1.98-10.905-4.196c-3.83-1.596-6.536-2.827-8.348-3.695"/><path stroke="#2859c5" stroke-linecap="round" stroke-linejoin="round" d="M11.102 20.125A75 75 0 0 0 11 24.166c0 3.094.159 5.037.315 6.2c.137 1.016.719 1.88 1.627 2.355C14.698 33.641 18.265 35 24 35s9.302-1.358 11.058-2.278c.908-.475 1.49-1.339 1.627-2.354c.156-1.164.315-3.107.315-6.2a75 75 0 0 0-.102-4.042M8 40a3 3 0 1 1-6 0a3 3 0 1 1 6 0"/></g></svg>