<svg xmlns="http://www.w3.org/2000/svg" width="48" height="48" viewBox="0 0 48 48"><g fill="none" stroke-width="3"><path fill="#8fbffa" d="M4.207 20.68c-1.678 1.938-1.678 4.702 0 6.64c1.698 1.962 4.28 4.793 7.98 8.492s6.53 6.283 8.493 7.98c1.938 1.679 4.702 1.679 6.64 0c1.962-1.697 4.793-4.28 8.492-7.98s6.283-6.53 7.98-8.491c1.679-1.939 1.679-4.703 0-6.642c-1.697-1.961-4.28-4.792-7.98-8.491c-3.7-3.7-6.53-6.283-8.491-7.98c-1.939-1.679-4.703-1.679-6.642 0c-1.961 1.697-4.792 4.28-8.491 7.98c-3.7 3.7-6.283 6.53-7.98 8.492Z"/><path fill="#fff" d="M20.5 33.5a3.5 3.5 0 1 0 7 0a3.5 3.5 0 1 0-7 0m-.36-19.363c-.093-1.296.489-2.571 1.75-2.888A8.6 8.6 0 0 1 24 11c.834 0 1.538.105 2.111.249c1.26.317 1.842 1.592 1.75 2.888c-.19 2.696-.555 7.379-.949 10.003c-.13.865-.65 1.609-1.512 1.754c-.369.063-.83.106-1.4.106s-1.031-.044-1.4-.106c-.862-.145-1.383-.889-1.512-1.754c-.394-2.624-.758-7.307-.949-10.003Z"/><path stroke="#2859c5" stroke-linecap="round" stroke-linejoin="round" d="M4.207 20.68c-1.678 1.938-1.678 4.702 0 6.64c1.698 1.962 4.28 4.793 7.98 8.493s6.53 6.282 8.492 7.98c1.939 1.678 4.703 1.678 6.641 0c1.962-1.698 4.793-4.28 8.492-7.98s6.282-6.53 7.98-8.492c1.679-1.939 1.679-4.703 0-6.641c-1.698-1.962-4.28-4.793-7.98-8.492s-6.53-6.282-8.492-7.98c-1.938-1.679-4.702-1.679-6.64 0c-1.962 1.698-4.793 4.28-8.493 7.98s-6.282 6.53-7.98 8.492"/><path stroke="#2859c5" stroke-linecap="round" stroke-linejoin="round" d="M20.14 14.137c-.093-1.296.489-2.571 1.75-2.888A8.6 8.6 0 0 1 24 11c.834 0 1.538.105 2.111.249c1.26.317 1.842 1.592 1.75 2.888c-.19 2.696-.555 7.379-.949 10.003c-.13.865-.65 1.609-1.512 1.754c-.369.063-.83.106-1.4.106s-1.031-.044-1.4-.106c-.862-.145-1.383-.889-1.512-1.754c-.394-2.624-.758-7.307-.949-10.003ZM20.5 33.5a3.5 3.5 0 1 0 7 0a3.5 3.5 0 1 0-7 0"/></g></svg>