<svg xmlns="http://www.w3.org/2000/svg" width="48" height="48" viewBox="0 0 48 48"><g fill="none" stroke-width="3"><path fill="#8fbffa" d="M2.152 42.356c.11 1.722 1.23 3.057 2.941 3.29c1.4.191 3.457.354 6.407.354s5.008-.163 6.407-.354c1.71-.233 2.832-1.568 2.941-3.29c.084-1.309.152-3.193.152-5.856s-.068-4.547-.152-5.856c-.11-1.722-1.23-3.057-2.941-3.29c-1.4-.191-3.457-.354-6.407-.354s-5.007.163-6.407.354c-1.71.233-2.832 1.568-2.941 3.29C2.068 31.953 2 33.837 2 36.5s.068 4.547.152 5.856"/><path stroke="#2859c5" stroke-linecap="round" stroke-linejoin="round" d="M2.152 42.356c.11 1.722 1.23 3.057 2.941 3.29c1.4.191 3.457.354 6.407.354s5.008-.163 6.407-.354c1.71-.233 2.832-1.568 2.941-3.29c.084-1.309.152-3.193.152-5.856s-.068-4.547-.152-5.856c-.11-1.722-1.23-3.057-2.941-3.29c-1.4-.191-3.457-.354-6.407-.354s-5.007.163-6.407.354c-1.71.233-2.832 1.568-2.941 3.29C2.068 31.953 2 33.837 2 36.5s.068 4.547.152 5.856"/><path fill="#8fbffa" d="M2.152 5.644c.11-1.722 1.23-3.057 2.941-3.29C6.493 2.163 8.55 2 11.5 2s5.008.163 6.407.354c1.71.233 2.832 1.568 2.941 3.29c.084 1.309.152 3.193.152 5.856s-.068 4.547-.152 5.856c-.11 1.722-1.23 3.057-2.941 3.29c-1.4.191-3.457.354-6.407.354s-5.007-.163-6.407-.354c-1.71-.233-2.832-1.568-2.941-3.29C2.068 16.047 2 14.163 2 11.5s.068-4.547.152-5.856"/><path stroke="#2859c5" stroke-linecap="round" stroke-linejoin="round" d="M2.152 5.644c.11-1.722 1.23-3.057 2.941-3.29C6.493 2.163 8.55 2 11.5 2s5.008.163 6.407.354c1.71.233 2.832 1.568 2.941 3.29c.084 1.309.152 3.193.152 5.856s-.068 4.547-.152 5.856c-.11 1.722-1.23 3.057-2.941 3.29c-1.4.191-3.457.354-6.407.354s-5.007-.163-6.407-.354c-1.71-.233-2.832-1.568-2.941-3.29C2.068 16.047 2 14.163 2 11.5s.068-4.547.152-5.856"/><path fill="#8fbffa" d="M42.356 45.848c1.722-.11 3.057-1.23 3.29-2.941c.191-1.4.354-3.457.354-6.407s-.163-5.008-.354-6.407c-.233-1.71-1.568-2.832-3.29-2.941C41.047 27.068 39.163 27 36.5 27s-4.547.068-5.856.152c-1.722.11-3.057 1.23-3.29 2.941c-.191 1.4-.354 3.457-.354 6.407s.163 5.008.354 6.407c.233 1.71 1.568 2.832 3.29 2.941c1.309.084 3.193.152 5.856.152s4.547-.068 5.856-.152"/><path stroke="#2859c5" stroke-linecap="round" stroke-linejoin="round" d="M42.356 45.848c1.722-.11 3.057-1.23 3.29-2.941c.191-1.4.354-3.457.354-6.407s-.163-5.008-.354-6.407c-.233-1.71-1.568-2.832-3.29-2.941C41.047 27.068 39.163 27 36.5 27s-4.547.068-5.856.152c-1.722.11-3.057 1.23-3.29 2.941c-.191 1.4-.354 3.457-.354 6.407s.163 5.008.354 6.407c.233 1.71 1.568 2.832 3.29 2.941c1.309.084 3.193.152 5.856.152s4.547-.068 5.856-.152"/><path fill="#fff" d="M35.623 2.604a1 1 0 0 1 1.754 0l1.992 3.642a6 6 0 0 0 2.385 2.385l3.642 1.992a1 1 0 0 1 0 1.754l-3.642 1.992a6 6 0 0 0-2.385 2.385l-1.992 3.642a1 1 0 0 1-1.754 0l-1.992-3.642a6 6 0 0 0-2.385-2.385l-3.642-1.992a1 1 0 0 1 0-1.754l3.642-1.992a6 6 0 0 0 2.385-2.385z"/><path stroke="#2859c5" stroke-linecap="round" stroke-linejoin="round" d="M35.623 2.604a1 1 0 0 1 1.754 0l1.992 3.642a6 6 0 0 0 2.385 2.385l3.642 1.992a1 1 0 0 1 0 1.754l-3.642 1.992a6 6 0 0 0-2.385 2.385l-1.992 3.642a1 1 0 0 1-1.754 0l-1.992-3.642a6 6 0 0 0-2.385-2.385l-3.642-1.992a1 1 0 0 1 0-1.754l3.642-1.992a6 6 0 0 0 2.385-2.385z"/></g></svg>