<svg xmlns="http://www.w3.org/2000/svg" width="48" height="48" viewBox="0 0 48 48"><g fill="none" stroke-width="3"><path fill="#8fbffa" d="M28.61 3.492a5.37 5.37 0 0 1 4.899 4.995C33.748 11.807 34 16.973 34 24c0 8.605-.189 14.836-.324 18.182A2.94 2.94 0 0 1 30.722 45H6.288a2.95 2.95 0 0 1-2.96-2.83C3.193 38.746 3 32.383 3 24c0-6.858.258-12.082.5-15.467a5.42 5.42 0 0 1 4.933-5.045C11.098 3.242 14.689 3 18.5 3c3.831 0 7.44.244 10.11.492"/><path fill="#fff" d="M30.722 45h11.07a2.957 2.957 0 0 0 2.968-2.836c.106-2.688.24-7 .24-11.664c0-3.563-.156-6.775-.325-9.202c-.188-2.72-2.296-4.858-5.017-5.047a104 104 0 0 0-5.775-.241c.07 2.324.117 4.987.117 7.99c0 8.605-.19 14.836-.324 18.182A2.94 2.94 0 0 1 30.722 45m-7.306 0h-9.832a127 127 0 0 1-.084-5c0-2.218.035-3.795.078-4.895c.059-1.488.89-2.746 2.365-2.95c.66-.091 1.5-.155 2.557-.155s1.896.064 2.557.155c1.475.204 2.306 1.462 2.365 2.95c.043 1.1.078 2.677.078 4.895a127 127 0 0 1-.084 5"/><path stroke="#2859c5" stroke-linecap="round" stroke-linejoin="round" d="M28.61 3.492a5.37 5.37 0 0 1 4.899 4.995C33.748 11.807 34 16.973 34 24c0 8.605-.189 14.836-.324 18.182A2.94 2.94 0 0 1 30.722 45H6.288a2.95 2.95 0 0 1-2.96-2.83C3.193 38.746 3 32.383 3 24c0-6.858.258-12.082.5-15.467a5.42 5.42 0 0 1 4.933-5.045C11.098 3.242 14.689 3 18.5 3c3.831 0 7.44.244 10.11.492"/><path stroke="#2859c5" stroke-linecap="round" stroke-linejoin="round" d="M30.722 45h11.07a2.957 2.957 0 0 0 2.968-2.836c.106-2.688.24-7 .24-11.664c0-3.563-.156-6.775-.325-9.202c-.188-2.72-2.296-4.858-5.017-5.047a104 104 0 0 0-5.775-.241M23.416 45l.006-.105c.043-1.1.078-2.677.078-4.895s-.035-3.795-.078-4.895c-.059-1.488-.89-2.746-2.365-2.95A19 19 0 0 0 18.5 32a19 19 0 0 0-2.557.155c-1.475.204-2.306 1.462-2.365 2.95c-.043 1.1-.078 2.677-.078 4.895a127 127 0 0 0 .084 5M13 12v2m0 9v2m11-13v2m0 9v2"/></g></svg>