<svg width="1085" height="256" viewBox="0 0 1085 256" fill="none" xmlns="http://www.w3.org/2000/svg">
<g clip-path="url(#clip0_10_11)">
<path d="M94.6169 254.58C88.2339 254.58 81.9162 252.23 75.7833 249.953C69.0222 247.441 62.0417 244.846 55.0915 245.459L38.1617 246.96V181.03L47.3373 180.215C53.0965 179.713 57.9146 181.949 62.5741 184.12C66.975 186.169 71.139 188.128 75.9224 187.715L106.487 182.169C117.408 180.313 123.419 186.654 127.064 192.429L160.51 176.881C173.048 171.252 187.118 176.903 195.568 190.929C197.765 194.576 196.541 199.418 192.844 201.726C188.513 204.427 184.197 207.131 179.929 209.808C142.694 233.136 110.54 253.282 96.801 254.484C96.0729 254.549 95.3449 254.58 94.6169 254.58ZM57.2322 241.019C64.2171 241.019 70.8543 243.485 77.2959 245.878C83.9678 248.36 90.2703 250.698 96.4185 250.155C109.117 249.044 142.392 228.196 177.618 206.122C181.891 203.447 186.207 200.739 190.541 198.036C192.236 196.979 192.821 194.795 191.843 193.17C184.582 181.121 172.711 176.157 162.316 180.834L125.312 198.036L124.321 196.306C121.018 190.551 116.413 184.883 107.241 186.45L76.4874 192.02C70.3479 192.526 65.4602 190.255 60.7399 188.058C56.4107 186.039 52.3097 184.129 47.7241 184.544L42.5105 185.007V242.21L54.709 241.127C55.5544 241.053 56.3955 241.019 57.2322 241.019Z" fill="#20847C"/>
<path d="M86.0432 222.496C85.0283 222.496 84.1199 221.783 83.9156 220.748C83.6809 219.571 84.4437 218.427 85.6216 218.191C97.7267 215.772 111.338 210.234 127.179 201.285L124.323 196.306C123.726 195.265 124.086 193.935 125.125 193.339C126.166 192.746 127.496 193.104 128.092 194.141L132.032 201.011C132.627 202.052 132.269 203.38 131.232 203.975C114.165 213.8 99.5262 219.844 86.4714 222.452C86.3279 222.483 86.1845 222.496 86.0432 222.496Z" fill="#20847C"/>
<path d="M34.8605 254.58H8.75515C4.53682 254.58 1.10522 251.148 1.10522 246.93L1.10522 176.759C1.10522 172.543 4.53682 169.109 8.75515 169.109H34.8605C39.0788 169.109 42.5104 172.541 42.5104 176.759V246.93C42.5083 251.148 39.0767 254.58 34.8605 254.58ZM8.75515 173.458C6.93394 173.458 5.45177 174.94 5.45177 176.761L5.45177 246.93C5.45177 248.751 6.93394 250.233 8.75515 250.233H34.8605C36.6817 250.233 38.1639 248.751 38.1639 246.93V176.759C38.1639 174.938 36.6817 173.456 34.8605 173.456L8.75515 173.458Z" fill="#20847C"/>
<path d="M3.37903 183L4.1987 186.947L4.8521 189.788L5.82639 193.26L7.12155 197.361L8.25045 200.357L9.37935 203.353L11.3046 207.134L13.2299 210.914L15.9515 215.48L21.7041 223.659L27.9204 230.413L34.7669 236.845C34.7669 236.845 39.4179 240.28 42.3981 242.481L45.4173 244.514L47.1647 245.608L48.912 246.702" stroke="#20847C" stroke-width="3.5"/>
</g>
<g clip-path="url(#clip1_10_11)">
<path d="M161.276 1.30969C167.659 1.30969 173.977 3.65899 180.11 5.93658C186.871 8.44889 193.852 11.0438 200.802 10.4309L217.731 8.92918L217.731 74.8598L208.556 75.6747C202.797 76.1768 197.979 73.9405 193.319 71.7694C188.918 69.72 184.754 67.7618 179.971 68.1748L149.406 73.721C138.485 75.5769 132.474 69.2353 128.829 63.4609L95.3827 79.0085C82.8451 84.6373 68.7753 78.9868 60.3256 64.9605C58.1285 61.3137 59.352 56.4717 63.0488 54.1637C67.3801 51.4623 71.6962 48.7588 75.9645 46.0813C113.199 22.7534 145.353 2.60713 159.092 1.40531C159.82 1.34011 160.548 1.30969 161.276 1.30969ZM198.661 14.8709C191.676 14.8709 185.039 12.4042 178.597 10.0115C171.925 7.52959 165.623 5.19116 159.475 5.73448C146.776 6.84502 113.501 27.6932 78.2747 49.7671C74.0021 52.4424 69.6859 55.1504 65.3524 57.8539C63.6573 58.9101 63.0727 61.0943 64.0506 62.7199C71.3115 74.7685 83.182 79.7322 93.5767 75.0554L130.581 57.8539L131.572 59.5838C134.875 65.3387 139.481 71.0065 148.652 69.4396L179.406 63.8695C185.545 63.3631 190.433 65.6342 195.153 67.8314C199.482 69.8504 203.583 71.7607 208.169 71.3456L213.383 70.8827L213.383 13.68L201.184 14.7623C200.339 14.8361 199.498 14.8709 198.661 14.8709Z" fill="#20847C"/>
<path d="M169.85 33.3937C170.865 33.3937 171.773 34.1066 171.977 35.141C172.212 36.3189 171.449 37.4621 170.271 37.699C158.166 40.1178 144.555 45.6553 128.714 54.6049L131.57 59.5838C132.167 60.6248 131.807 61.9549 130.768 62.5503C129.727 63.1436 128.397 62.7851 127.801 61.7484L123.861 54.8787C123.266 53.8377 123.624 52.5098 124.661 51.9144C141.728 42.089 156.367 36.0451 169.422 33.4372C169.565 33.4067 169.709 33.3937 169.85 33.3937Z" fill="#20847C"/>
<path d="M221.033 0.315076L247.138 0.315076C251.356 0.315076 254.788 3.5 254.788 8.04257C254.788 35.7238 254.788 78.9248 254.788 78.9248C254.788 83.1837 251.356 86.6523 247.138 86.6523L221.033 86.6523C216.814 86.6523 213.383 83.1859 213.383 78.9248L213.383 8.04257C213.385 3.78147 216.817 0.315076 221.033 0.315076ZM247.138 82.2595C248.959 82.2595 250.441 80.7623 250.441 78.9226L250.441 8.04257C250.441 6.2029 248.959 4.7057 247.138 4.7057L221.033 4.7057C219.211 4.7057 217.729 6.2029 217.729 8.04257L217.729 78.9248C217.729 80.7645 219.211 82.2617 221.033 82.2617L247.138 82.2595Z" fill="#20847C"/>
<path d="M207 11L210.5 13L213 14.5L216 16.5L219.5 19L222 21L224.5 23L227.5 26L230.5 29L234 33L240 41L244.5 49L248.5 57.5C248.5 57.5 250.328 62.9853 251.5 66.5L252.5 70L253 72L253.5 74" stroke="#20847C" stroke-width="6"/>
</g>
<path d="M129.823 174.762L129.984 174.965C173.898 157.238 190.819 116.143 171.481 98.4158C152.142 80.6883 129.984 104.86 129.984 104.86H129.823C129.823 104.86 107.665 80.6883 88.3263 98.4158C68.9886 116.141 85.9098 157.035 129.823 174.762Z" fill="url(#paint0_linear_10_11)"/>
<path d="M338.6 206.07C333.233 206.07 328.633 204.767 324.8 202.16C321.12 199.4 318.053 195.337 315.6 189.97L282.71 114.76C280.87 110.16 280.257 105.867 280.87 101.88C281.483 97.8933 283.4 94.75 286.62 92.45C289.993 89.9967 294.593 88.77 300.42 88.77C305.327 88.77 309.237 89.92 312.15 92.22C315.217 94.3667 317.977 98.66 320.43 105.1L343.66 164.9H335.84L360.22 104.87C362.673 98.5833 365.433 94.3667 368.5 92.22C371.567 89.92 375.783 88.77 381.15 88.77C385.75 88.77 389.43 89.9967 392.19 92.45C395.103 94.75 396.867 97.8933 397.48 101.88C398.093 105.867 397.327 110.16 395.18 114.76L361.6 190.2C359.3 195.567 356.233 199.553 352.4 202.16C348.72 204.767 344.12 206.07 338.6 206.07ZM471.838 206.53C458.038 206.53 446.078 204.153 435.958 199.4C425.991 194.493 418.325 187.593 412.958 178.7C407.591 169.807 404.908 159.303 404.908 147.19C404.908 135.537 407.438 125.34 412.498 116.6C417.711 107.707 424.765 100.807 433.658 95.9C442.705 90.84 452.978 88.31 464.478 88.31C472.911 88.31 480.578 89.69 487.478 92.45C494.378 95.0567 500.281 98.9667 505.188 104.18C510.095 109.24 513.775 115.373 516.228 122.58C518.835 129.787 520.138 137.837 520.138 146.73C520.138 149.797 519.295 152.097 517.608 153.63C515.921 155.01 513.238 155.7 509.558 155.7H439.178V136.38H490.238L486.558 139.37C486.558 133.697 485.791 129.097 484.258 125.57C482.725 122.043 480.425 119.36 477.358 117.52C474.445 115.68 470.765 114.76 466.318 114.76C461.565 114.76 457.425 115.91 453.898 118.21C450.525 120.357 447.918 123.577 446.078 127.87C444.238 132.163 443.318 137.53 443.318 143.97V146.04C443.318 156.927 445.695 164.747 450.448 169.5C455.355 174.1 462.868 176.4 472.988 176.4C476.361 176.4 480.195 176.017 484.488 175.25C488.935 174.33 493.151 173.103 497.138 171.57C501.125 170.037 504.575 169.807 507.488 170.88C510.401 171.8 512.625 173.487 514.158 175.94C515.845 178.24 516.765 180.923 516.918 183.99C517.071 186.903 516.381 189.817 514.848 192.73C513.315 195.49 510.785 197.637 507.258 199.17C501.891 201.623 496.141 203.463 490.008 204.69C484.028 205.917 477.971 206.53 471.838 206.53ZM558.706 206.07C551.96 206.07 546.746 204.307 543.066 200.78C539.54 197.253 537.776 192.117 537.776 185.37V109.24C537.776 102.647 539.463 97.5867 542.836 94.06C546.363 90.5333 551.346 88.77 557.786 88.77C564.226 88.77 569.133 90.5333 572.506 94.06C575.88 97.5867 577.566 102.647 577.566 109.24V118.67H575.266C576.8 109.47 580.71 102.187 586.996 96.82C593.436 91.4533 601.41 88.6167 610.916 88.31C615.363 88.1567 618.66 89.3067 620.806 91.76C623.106 94.06 624.333 98.43 624.486 104.87C624.486 110.39 623.336 114.76 621.036 117.98C618.736 121.2 614.366 123.117 607.926 123.73L602.636 124.19C594.51 124.957 588.606 127.257 584.926 131.09C581.246 134.77 579.406 140.29 579.406 147.65V185.37C579.406 192.117 577.643 197.253 574.116 200.78C570.59 204.307 565.453 206.07 558.706 206.07ZM691.601 247.93C683.168 247.93 675.271 247.317 667.911 246.09C660.551 245.017 654.188 243.407 648.821 241.26C644.375 239.727 641.231 237.503 639.391 234.59C637.551 231.677 636.708 228.61 636.861 225.39C637.015 222.17 637.858 219.257 639.391 216.65C641.078 214.043 643.301 212.127 646.061 210.9C648.821 209.827 651.888 209.903 655.261 211.13C662.008 213.89 668.141 215.653 673.661 216.42C679.181 217.34 683.858 217.8 687.691 217.8C697.045 217.8 704.021 215.807 708.621 211.82C713.375 207.987 715.751 201.93 715.751 193.65V179.16H717.591C715.291 185.6 710.615 190.89 703.561 195.03C696.508 199.017 688.841 201.01 680.561 201.01C670.441 201.01 661.625 198.71 654.111 194.11C646.598 189.357 640.695 182.763 636.401 174.33C632.261 165.897 630.191 156.007 630.191 144.66C630.191 136.073 631.418 128.33 633.871 121.43C636.325 114.53 639.698 108.627 643.991 103.72C648.438 98.8133 653.728 95.0567 659.861 92.45C666.148 89.69 673.048 88.31 680.561 88.31C689.148 88.31 696.815 90.3033 703.561 94.29C710.461 98.2767 715.061 103.49 717.361 109.93L715.061 119.36V109.24C715.061 102.647 716.825 97.5867 720.351 94.06C724.031 90.5333 729.091 88.77 735.531 88.77C741.971 88.77 746.878 90.5333 750.251 94.06C753.778 97.5867 755.541 102.647 755.541 109.24V188.82C755.541 208.447 750.021 223.167 738.981 232.98C727.941 242.947 712.148 247.93 691.601 247.93ZM693.211 170.88C697.811 170.88 701.721 169.883 704.941 167.89C708.161 165.743 710.691 162.753 712.531 158.92C714.371 154.933 715.291 150.18 715.291 144.66C715.291 136.38 713.298 129.94 709.311 125.34C705.325 120.74 699.958 118.44 693.211 118.44C688.918 118.44 685.085 119.513 681.711 121.66C678.338 123.653 675.731 126.643 673.891 130.63C672.205 134.463 671.361 139.14 671.361 144.66C671.361 152.94 673.355 159.38 677.341 163.98C681.328 168.58 686.618 170.88 693.211 170.88ZM799.696 206.07C793.256 206.07 788.273 204.153 784.746 200.32C781.219 196.487 779.456 190.967 779.456 183.76V111.08C779.456 103.873 781.219 98.3533 784.746 94.52C788.273 90.6867 793.256 88.77 799.696 88.77C806.289 88.77 811.349 90.6867 814.876 94.52C818.556 98.3533 820.396 103.873 820.396 111.08V183.76C820.396 190.967 818.633 196.487 815.106 200.32C811.579 204.153 806.443 206.07 799.696 206.07ZM799.696 72.44C792.489 72.44 786.893 70.7533 782.906 67.38C779.073 64.0067 777.156 59.1 777.156 52.66C777.156 46.3733 779.073 41.5433 782.906 38.17C786.893 34.7967 792.489 33.11 799.696 33.11C807.209 33.11 812.883 34.7967 816.716 38.17C820.549 41.5433 822.466 46.3733 822.466 52.66C822.466 59.1 820.549 64.0067 816.716 67.38C812.883 70.7533 807.209 72.44 799.696 72.44ZM894.283 206.07C888.917 206.07 884.317 204.767 880.483 202.16C876.803 199.4 873.737 195.337 871.283 189.97L838.393 114.76C836.553 110.16 835.94 105.867 836.553 101.88C837.167 97.8933 839.083 94.75 842.303 92.45C845.677 89.9967 850.277 88.77 856.103 88.77C861.01 88.77 864.92 89.92 867.833 92.22C870.9 94.3667 873.66 98.66 876.113 105.1L899.343 164.9H891.523L915.903 104.87C918.357 98.5833 921.117 94.3667 924.183 92.22C927.25 89.92 931.467 88.77 936.833 88.77C941.433 88.77 945.113 89.9967 947.873 92.45C950.787 94.75 952.55 97.8933 953.163 101.88C953.777 105.867 953.01 110.16 950.863 114.76L917.283 190.2C914.983 195.567 911.917 199.553 908.083 202.16C904.403 204.767 899.803 206.07 894.283 206.07ZM1027.52 206.53C1013.72 206.53 1001.76 204.153 991.642 199.4C981.675 194.493 974.008 187.593 968.642 178.7C963.275 169.807 960.592 159.303 960.592 147.19C960.592 135.537 963.122 125.34 968.182 116.6C973.395 107.707 980.448 100.807 989.342 95.9C998.388 90.84 1008.66 88.31 1020.16 88.31C1028.6 88.31 1036.26 89.69 1043.16 92.45C1050.06 95.0567 1055.97 98.9667 1060.87 104.18C1065.78 109.24 1069.46 115.373 1071.91 122.58C1074.52 129.787 1075.82 137.837 1075.82 146.73C1075.82 149.797 1074.98 152.097 1073.29 153.63C1071.61 155.01 1068.92 155.7 1065.24 155.7H994.862V136.38H1045.92L1042.24 139.37C1042.24 133.697 1041.48 129.097 1039.94 125.57C1038.41 122.043 1036.11 119.36 1033.04 117.52C1030.13 115.68 1026.45 114.76 1022 114.76C1017.25 114.76 1013.11 115.91 1009.58 118.21C1006.21 120.357 1003.6 123.577 1001.76 127.87C999.922 132.163 999.002 137.53 999.002 143.97V146.04C999.002 156.927 1001.38 164.747 1006.13 169.5C1011.04 174.1 1018.55 176.4 1028.67 176.4C1032.05 176.4 1035.88 176.017 1040.17 175.25C1044.62 174.33 1048.84 173.103 1052.82 171.57C1056.81 170.037 1060.26 169.807 1063.17 170.88C1066.09 171.8 1068.31 173.487 1069.84 175.94C1071.53 178.24 1072.45 180.923 1072.6 183.99C1072.76 186.903 1072.07 189.817 1070.53 192.73C1069 195.49 1066.47 197.637 1062.94 199.17C1057.58 201.623 1051.83 203.463 1045.69 204.69C1039.71 205.917 1033.66 206.53 1027.52 206.53Z" fill="url(#paint1_linear_10_11)"/>
<defs>
<linearGradient id="paint0_linear_10_11" x1="129.904" y1="91.9191" x2="129.904" y2="174.965" gradientUnits="userSpaceOnUse">
<stop stop-color="#20847C"/>
<stop offset="1" stop-color="#0FC7B8"/>
</linearGradient>
<linearGradient id="paint1_linear_10_11" x1="273" y1="128" x2="1085" y2="128" gradientUnits="userSpaceOnUse">
<stop stop-color="#20847C"/>
<stop offset="1" stop-color="#0FC7B8"/>
</linearGradient>
<clipPath id="clip0_10_11">
<rect y="57.8974" width="197.992" height="197.992" rx="90" fill="white"/>
</clipPath>
<clipPath id="clip1_10_11">
<rect x="255.893" y="197.992" width="197.992" height="197.992" rx="90" transform="rotate(-180 255.893 197.992)" fill="white"/>
</clipPath>
</defs>
</svg>
