<svg width="827" height="212" viewBox="0 0 827 212" fill="none" xmlns="http://www.w3.org/2000/svg">
<circle cx="119" cy="105" r="67.5" fill="url(#paint0_linear_10_11)"/>
<circle cx="119" cy="105" r="67.5" stroke="#292929" stroke-width="5"/>
<circle cx="119" cy="105" r="67.5" stroke="#292929" stroke-width="5"/>
<circle cx="119" cy="105" r="67.5" stroke="#292929" stroke-width="5"/>
<circle cx="119" cy="105" r="67.5" stroke="#292929" stroke-width="5"/>
<circle cx="120" cy="104" r="42.5" fill="url(#paint1_linear_10_11)"/>
<circle cx="120" cy="104" r="42.5" stroke="#292929" stroke-width="5"/>
<circle cx="120" cy="104" r="42.5" stroke="#292929" stroke-width="5"/>
<circle cx="120" cy="104" r="42.5" stroke="#292929" stroke-width="5"/>
<circle cx="120" cy="104" r="42.5" stroke="#292929" stroke-width="5"/>
<path d="M176.66 158.685C174.451 159.236 170.361 160.722 167.675 161.741C165.645 162.512 164.518 163.782 163.032 164.756C161.281 165.904 158.219 167.394 156.032 168.651C155.042 169.221 154.034 169.625 153.661 170.274C152.469 172.347 159.499 170.836 160.147 170.513C161.168 169.261 162.281 168.334 163.021 167.64C163.394 167.313 163.761 167.038 164.14 166.754" stroke="#00B9AA" stroke-width="10" stroke-linecap="round"/>
<path d="M146.008 158.603C144.922 158.603 141.292 159.021 135.643 159.762C134.246 159.945 133.033 159.869 133.255 159.869C137.379 159.869 139.557 159.553 141.748 158.975C144.527 158.242 147.692 157.026 151.459 156.232C157.572 154.942 162.154 153.753 166.039 152.645C168.553 151.928 170.296 150.061 171.822 149.526C174.013 148.758 169.706 152.898 167.944 154.692C166.402 156.261 165.088 157.859 164.538 158.755C164.056 159.539 166.655 159.553 167.867 159.448C170.897 159.187 173.577 157.128 176.795 154.715C178.143 153.705 177.352 150.739 176.932 150.126C174.952 147.246 172.024 156.254 169.403 159.858C167.456 162.537 165.697 164.188 164.177 165.511C162.584 166.898 159.749 167.043 157.376 167.781C155.172 168.466 152.824 169.677 149.786 170.683C149.043 170.928 148.45 171.26 147.84 171.526C147.229 171.792 146.628 172.001 147.521 171.116C153.244 165.445 157.401 163.998 162.03 161.356C162.913 160.852 163.371 160.509 163.319 160.243C163.266 159.977 162.664 159.768 161.753 159.922C160.842 160.075 159.639 160.598 150.781 165.568C141.922 170.539 125.445 179.941 116.535 184.89C105.227 191.171 102.159 192.054 101.124 192.214C97.9094 192.71 109.787 188.268 117.029 184.647C122.489 181.918 131.969 177.997 137.403 175.637C144.04 172.755 145.76 171.903 146.249 171.585C146.723 171.276 138.183 175.351 126.649 180.309C120.795 182.825 117.594 183.607 113.303 185.08C101.251 189.213 94.4212 190.357 90.3137 191.736C89.2927 192.079 88.1852 192.266 87.5747 192.32C87.516 192.325 88.167 192.06 95.0317 188.871C101.897 185.681 115.006 179.517 122.181 176.08C133.118 170.841 138.34 167.689 140.233 166.102C145.777 161.453 118.301 164.514 120.297 164.199C123.383 163.712 125.955 163.247 126.868 163.35C127.718 163.446 122.719 166.917 113.824 172.123C108.635 175.16 101.681 178.479 97.6687 180.411C90.9981 183.624 88.1888 184.456 87.0845 184.88C85.5598 185.466 90.8422 183.408 96.9908 180.736C102.13 178.503 111.559 174.825 116.933 172.574C125.639 168.928 128.864 166.739 130.516 165.046C130.757 164.799 129.862 164.517 129.131 164.409C127.576 164.18 119.114 165.869 107.152 168.295C99.6465 169.818 94.2828 170.735 89.2294 171.738C88.0833 171.966 86.9861 171.9 86.7893 171.795C86.2458 171.507 96.4769 170.013 110.616 168.113C116.317 167.348 119.103 167.468 119.927 167.468C123.129 167.468 108.278 169.253 101.507 170.733C93.5977 172.462 91.5857 172.425 90.4358 172.742C89.7874 172.921 88.9251 172.85 89.5137 172.379C94.2912 168.564 102.702 166.752 108.574 164.729C113.027 163.195 114.78 162.089 115.389 161.405C115.949 160.776 111.781 160.186 107.161 160.134C105.788 160.118 106.39 159.977 107.241 159.923C110.767 159.7 114.394 159.135 119.93 158.342C121.467 158.122 122.675 157.97 123.588 157.761C123.885 157.693 123.418 157.134 122.932 156.919C122.445 156.704 121.844 156.704 121.414 156.442C119.517 155.291 119.045 152.809 117.707 150.907C115.953 148.412 112.011 147.953 108.606 147.26C101.969 145.908 98.168 148.466 93.8436 149.419C89.4402 150.389 83.5965 151.315 77.4607 152.581C63.4211 155.479 60.3726 155.329 53.5807 155.28C52.0919 155.27 51.5014 154.81 51.0112 154.44C49.1907 153.064 49.1834 150.593 48.6968 148.795C48.2378 147.099 47.7255 145.838 47.0002 145.205C46.6162 144.87 45.7938 144.99 45.4822 145.251C44.1112 146.4 46.7487 148.358 46.8125 153.465C46.8429 155.901 45.2982 158.166 44.7478 160.495C44.5038 161.527 44.5656 162.503 44.3232 163.398C44.0539 164.391 43.9569 171.83 44.017 182.487C44.0406 186.669 44.5619 187.514 45.1669 188.2C46.3958 189.592 49.2927 188.47 63.3394 188.467C67.9249 188.466 70.5485 189.623 72.7427 190.786C74.5554 191.747 76.9924 191.63 79.3013 192.212C81.7247 192.824 83.9173 193.213 86.5287 193.48C89.0247 193.736 91.6877 193.954 105.195 193.905C110.246 193.886 111.865 192.903 112.353 192.534C115.732 189.982 99.6113 192.58 97.8436 193.688C96.1003 194.78 94.0203 195.22 92.6153 195.801C90.7739 196.562 97.2787 195.011 101.643 193.331C107.888 190.928 113.286 188.806 117.086 187.047C119.031 186.147 120.969 184.57 123.039 183.354C124.866 182.282 126.925 181.822 129.716 180.769C133.321 179.41 136.036 178.656 138.106 178.496C140.288 178.328 132.29 178.441 130.403 179.231C128.467 180.041 127.187 182.233 126.145 183.4C124.68 185.039 131.174 182.246 133.305 181.507C136.218 180.496 137.254 177.712 138.411 176.022C139.586 174.305 141.263 172.337 142.602 170.008C143.738 168.034 144.543 165.79 145.7 163.991C145.981 163.555 146.365 163.149 146.611 163.195C148.506 163.549 146.861 166.929 146.072 169.358C145.668 170.6 145.523 171.789 145.341 172.842C145.25 173.369 145.279 173.894 145.941 173.693C150.694 172.249 151.949 168.322 154.079 166.209C156.317 163.989 158.393 162.2 160.458 161.087C162.208 160.143 165.063 159.243 167.807 158.342C169.894 157.657 172.359 157.128 174.732 156.442C176.707 155.872 178.318 155.754 178.989 155.701C179.08 155.694 178.577 155.545 178.269 155.178C176.439 152.996 176.142 149.852 174.202 147.951C173.403 147.169 172.979 146.158 172.919 145.259C172.823 143.832 169.597 150.137 167.215 152.581C165.23 154.618 161.702 158.894 159.257 161.446C157.853 162.911 155.382 166.176 153.545 168.832C151.998 171.07 150.994 172.736 149.718 174.478C148.361 176.333 146.868 178.118 144.499 179.387C142.931 180.227 141.882 181.185 140.853 181.239C140.302 181.268 139.703 180.98 139.273 180.663C138.843 180.347 138.602 179.929 138.418 179.504C138.234 179.08 138.114 178.662 138.719 177.282" stroke="#00B9AA" stroke-width="10" stroke-linecap="round"/>
<path d="M171.374 161.746C171.098 161.929 170.823 162.113 170.497 162.345C170.172 162.578 169.805 162.853 168.87 162.859" stroke="#00B9AA" stroke-width="10" stroke-linecap="round"/>
<path d="M137.707 184.561C134.766 185.663 127.891 188.267 122.563 190.396C120.347 191.281 118.887 192.068 117.401 192.905C115.841 193.785 113.879 194.11 111.101 195.361C108.578 196.496 106.923 197.265 105.437 197.913C103.951 198.562 102.471 199.118 100.663 199.676C94.7626 201.496 84.6642 199.869 83.1785 199.032C81.7631 198.234 80.4907 197.271 79.2359 196.066C78.0005 194.88 76.1335 194.21 74.5531 193.744C73.8214 193.528 67.6501 193.464 58.702 193.419C54.1442 193.395 52.1106 193.003 50.028 192.677C49.0689 192.527 47.4975 192.63 46.6934 192.905C45.8893 193.181 45.8893 193.732 45.9811 193.832C46.0729 193.932 46.2565 193.565 46.4889 193.192C46.7212 192.819 46.9966 192.452 47.2804 192.073" stroke="#00B9AA" stroke-width="10" stroke-linecap="round"/>
<path d="M65.9222 196.247C67.8532 196.247 71.9433 196.43 74.3987 196.571C76.4206 196.687 78.6154 197.632 80.5686 198.147C82.9078 198.764 85.1984 198.473 87.0626 198.795C88.7615 199.09 90.3069 200.415 91.008 201.806C92.4066 204.581 99.4886 202.374 101.205 201.813C102.705 201.323 104.035 200.704 105.426 200.098C106.82 199.31 108.114 198.567 109.877 198.242C110.343 198.195 110.802 198.195 111.553 197.638" stroke="#00B9AA" stroke-width="10" stroke-linecap="round"/>
<path d="M189.513 153.942C186.239 154.963 181.022 157.025 179.4 157.61C179.092 157.721 178.75 157.782 178.813 157.681C180.175 155.493 186.875 154.774 189.405 153.91C189.797 153.776 190.258 153.535 190.333 153.566C191.476 154.035 188.146 155.173 187.15 155.997C185.756 157.151 183.895 157.778 182.726 158.33C182.143 158.606 181.356 159.424 180.6 160.112C179.038 161.533 187.768 154.304 190.263 152.506C190.854 152.08 191.225 151.543 191.501 151.439C192.44 151.085 189.451 152.975 188.111 154.11C187.801 154.352 187.529 154.555 187.287 154.762C187.045 154.969 186.842 155.173 186.838 154.971" stroke="#00B9AA" stroke-width="2" stroke-linecap="round"/>
<path d="M86.1084 175.435C84.8174 174.606 82.5915 173.12 80.2292 172.516C78.7248 172.132 77.6723 171.448 77.2076 171.079C76.9777 170.897 77.2939 170.343 77.5721 170.061C78.9386 168.674 82.6583 167.928 85.3112 166.86C88.4147 165.61 91.7566 163.938 94.1647 162.827C99.5187 160.355 105.006 159.492 108.173 158.465C109.124 158.157 109.756 157.63 109.943 157.167C110.923 154.751 102.541 157.16 100.582 157.857C99.8514 158.117 98.9128 158.276 97.9863 158.231C97.5871 158.212 97.427 157.728 97.3783 157.309C97.3296 156.89 97.4215 156.431 97.6524 156.057C98.6077 154.509 101.857 154.567 103.956 153.967C106.022 153.377 107.616 151.696 109.196 150.722C109.92 150.276 110.315 148.922 110.499 147.205C110.558 146.654 111.049 146.866 111.376 147.098C112.662 148.012 113.832 149.275 115.779 150.343C117.509 151.292 119.58 152.152 120.839 152.434C122.022 152.7 118.946 150.215 117.74 148.684C116.992 147.734 116.069 147.241 115.329 147.148C113.785 146.954 110.894 149.269 107.681 150.391C105.601 151.117 103.097 152.614 100.173 153.912C97.2585 155.206 94.6474 156.047 92.3882 156.971C88.3322 158.629 83.0728 159.294 78.2607 159.712C71.2073 160.323 69.1471 159.208 65.6719 157.911C62.8244 156.849 61.6292 155.686 60.053 153.972C58.394 152.168 58.3794 150.305 58.2388 149.61C57.9656 148.26 60.6887 148.262 64.2529 148.214C65.4267 148.198 66.1644 148.63 66.4454 149.046C67.7101 150.918 60.4439 150.95 57.8285 150.305C55.1225 149.637 53.9332 147.617 52.4933 146.502C52.1531 146.239 51.8909 145.947 51.8867 145.668C51.8826 145.388 52.158 145.113 52.4835 144.925C53.7933 144.169 56.5041 144.272 58.4656 144.918C59.9831 145.417 60.6887 147.327 61.9436 148.442C63.2632 149.614 64.8623 150.021 68.8883 150.161C70.1555 150.205 71.3535 150.394 71.6415 150.394C76.4628 150.394 65.1572 149.748 62.8381 149.19C60.7736 148.694 59.036 147.984 56.9019 147.29C54.5522 146.525 52.6366 145.296 49.9015 144.923C49.2709 144.837 48.9249 144.373 48.7816 145.056C48.2831 147.432 49.1002 150.291 50.298 153.428C52.3989 158.93 54.7567 163.089 55.3591 164.803C56.4576 167.929 55.4134 173.838 54.3477 177.093C53.4079 179.964 52.2637 182.652 51.0548 183.921C48.2854 186.827 48.2683 170.749 49.4675 167.693C50.6689 164.631 55.4968 172.458 57.0717 173.991C59.5425 176.396 61.4288 178.39 62.5473 180.205C63.6699 182.027 65.6024 183.676 67.4137 185.169C67.8032 185.49 68.2011 185.724 68.5739 185.82C68.9468 185.916 69.314 185.824 69.7787 185.501C72.8937 183.338 73.955 177.677 74.2833 172.164C74.4247 169.791 73.6823 168.39 73.2205 167.604C71.9394 165.424 69.1471 164.216 66.9212 163.565C62.8194 162.365 60.4327 164.3 58.6145 165.414C57.9161 165.842 57.6365 166.62 57.5892 167.36C57.4846 168.996 59.3921 170.694 61.7071 173.754C63.3374 175.91 66.0587 178.206 68.6171 179.005C69.1965 179.185 69.865 179.052 69.8747 178.914C70.0384 176.599 63.2262 179.319 60.5635 180.948C58.8274 182.01 58.563 184.33 58.6089 185.398C58.6664 186.735 60.0432 181.934 62.4027 175.137C63.306 172.535 63.9385 171.083 64.5423 169.689C64.6869 169.355 65.1405 169.225 65.5592 169.222C67.3643 169.21 69.3085 170.332 71.9086 171.165C74.2522 171.916 76.1754 172.001 78.3553 173.203C80.6936 174.493 84.1329 176.258 86.7511 177.565C88.7249 178.549 92.0237 178.495 93.6208 179.141C96.5016 180.305 87.2325 181.272 82.5553 182.802C80.3394 183.527 78.6962 183.966 77.3537 184.336C73.8398 185.304 90.9358 184.987 89.9188 185.172C88.7237 185.389 86.6788 185.451 84.7756 185.314C84.2334 185.274 84.617 184.9 85.0817 184.758C85.5464 184.617 86.0973 184.617 86.5647 184.754C88.5147 185.329 89.5362 188.312 90.4642 190.869C90.7798 191.738 90.8384 192.772 90.6088 193.746C90.5164 194.138 89.9202 194.077 86.5619 192.699C83.2036 191.322 76.96 188.568 71.7695 186.047C66.579 183.526 62.6308 181.322 58.3474 178.259C54.0639 175.196 49.5648 171.339 47.1094 169.123C43.5369 165.899 42.4309 164.589 40.6724 161.954C37.4327 157.1 36.0314 154.395 35.4249 152.625C34.9049 151.108 34.6347 141.946 34.2201 136.717C34.1727 136.118 32.9681 137.035 32.5507 137.223C32.3986 137.292 32.4088 136.677 32.5924 136.302C32.7761 135.928 33.1434 135.653 33.3326 135.235C33.5218 134.818 33.5218 134.267 33.3381 134.121C31.9497 134.993 30.2831 136.109 27.9696 136.665C26.9526 136.76 25.3917 136.76 24.34 136.76" stroke="#00B9AA" stroke-width="10" stroke-linecap="round"/>
<path d="M34.3564 133.421C33.6191 133.421 27.3615 132.319 23.0489 131.475C22.5811 131.383 22.2142 131.29 22.53 131.243C22.8458 131.195 23.8558 131.195 24.1465 131.425C28.6351 134.968 8.75589 132.862 9.35688 133.601C10.9166 135.518 10.6117 137.678 10.7981 140.413C10.9233 142.249 11.8193 144.167 11.5897 146.114C11.5077 146.81 10.9011 146.776 10.5269 146.639C10.1526 146.501 9.87718 146.226 9.68937 145.9C9.31603 145.253 9.31514 143.176 9.45287 140.81C9.4951 140.084 9.86605 140.371 10.2375 140.743C12.1517 142.657 12.8376 146.02 13.7628 149.176C14.5402 151.829 15.4308 153.999 16.3142 155.905C17.0997 157.6 18.1241 159.102 17.9432 161.423C17.9069 161.889 17.1169 161.801 16.6035 161.709C14.8029 161.387 14.0507 159.581 13.4901 157.959C12.9456 156.383 12.7486 154.667 11.8234 153.09C11.238 152.091 10.8009 151.139 10.7063 150.629C10.4505 149.248 14.4959 152.697 16.2196 155.115C17.8495 157.402 19.877 161.222 21.2292 163.465C22.0982 164.906 22.7595 166.615 23.5483 168.426C23.9224 169.285 24.6153 169.867 24.8491 170.331C24.9357 170.502 24.4401 170.61 24.0672 170.612C22.5992 170.617 21.3795 169.225 20.7242 167.928C20.3801 167.247 20.1691 166.534 19.9354 166.163C19.3034 165.158 22.5703 168.095 24.0561 169.819C25.2362 171.188 26.282 172.552 27.1195 174.269C27.8848 175.838 28.6971 176.915 28.7917 177.517C28.8307 177.766 28.3354 177.844 27.9625 177.846C26.407 177.852 25.1802 176.275 24.1563 175.253C24.0233 175.12 24.518 174.973 24.8908 175.017C26.5186 175.212 28.4077 176.82 30.1773 178.12C31.6151 179.175 32.4978 180.899 33.5175 182.385C34.041 183.148 34.6318 183.779 34.8656 184.334C34.9753 184.595 34.4566 184.889 34.1296 184.848C33.4074 184.755 32.7844 183.601 32.3183 183.135C31.071 181.888 34.8127 185.724 36.2985 186.607C36.6761 186.832 37.0386 187.115 36.9982 187.165C36.0528 188.339 34.1783 185.179 32.9694 183.787C32.6637 183.436 32.4143 183.047 32.456 182.812C32.4978 182.577 32.865 182.485 33.2379 182.576C34.8934 182.977 36.2039 184.516 37.4128 185.771C38.6373 187.042 39.0836 188.231 39.4092 188.465C40.7121 189.4 38.1627 182.697 37.9275 179.016C37.7994 177.009 37.3279 174.244 36.816 171.687C36.424 169.729 35.3831 166.826 33.7665 161.43C30.9565 152.049 29.9074 145.391 29.6737 144.694C29.2544 143.444 31.6631 147.138 34.2534 152.043C35.9048 155.171 37.506 157.806 40.28 162.245C42.7305 166.167 42.7925 168.1 43.4895 170.787C43.7754 171.889 43.8164 172.833 43.5869 173.575C43.4793 173.922 42.8982 173.949 42.2945 173.721C40.8459 173.173 36.343 167.6 30.3164 160.182C26.1601 155.066 23.878 150.494 23.0447 148.5C22.2453 146.588 21.5631 144.283 21.0025 142.378C20.7742 141.602 20.4474 140.936 19.8464 140.473C19.5487 140.244 19.1536 140.193 19.0562 140.422C18.3242 142.137 21.2737 143.432 23.54 147.866C27.2948 155.212 28.4133 159.002 29.8531 161.654C30.7826 163.365 31.6631 164.945 32.3141 166.572C32.4087 166.99 32.4087 167.449 32.3169 167.87C32.2251 168.29 32.0415 168.657 31.574 169.035" stroke="#00B9AA" stroke-width="10" stroke-linecap="round"/>
<path d="M89.8506 157.85C89.667 157.85 89.4833 157.85 83.3747 158.218C77.266 158.585 65.2379 159.319 53.6799 160.076" stroke="#00B9AA" stroke-width="10" stroke-linecap="round"/>
<path d="M163.173 146.74C162.489 146.808 160.172 147.896 158.102 149.137C156.939 149.834 155.974 150.646 154.912 151.299C153.048 152.445 150.352 153.255 148.466 153.837C148.025 153.973 147.677 153.942 147.808 153.806C149.209 152.35 152.044 151.617 156.231 149.286C157.92 148.346 159.325 147.225 160.459 146.331C160.709 146.134 160.905 145.921 160.942 145.68C160.979 145.439 160.843 145.168 160.604 144.994C159.546 144.227 157.831 144.818 155.911 145.331C154.289 145.765 152.141 146.256 148.286 147.687C141.252 150.3 136.631 152.773 135.844 153.355C134.397 154.423 133.614 155.584 132.72 156.921C132.512 157.232 132.31 157.436 132.374 157.507C132.647 157.806 133.4 157.305 133.71 156.997C133.835 156.873 133.544 156.621 133.643 156.415C134.473 154.677 138.94 154.362 140.434 153.601C142.789 152.4 134.511 154.695 132.723 154.936C132.312 154.991 131.902 154.971 131.828 154.835C131.295 153.858 133.808 153.601 136.472 153.019C140.499 152.141 144.502 151.683 146.763 151.031C148.311 150.585 152.369 149.767 157.819 148.293C162.285 147.086 165.086 145.987 167.074 145.03C169.28 143.968 170.095 141.879 170.581 140.638C170.962 139.664 168.461 139.813 163.672 139.811C161.658 139.81 160.777 140.908 159.508 141.524C158.383 142.07 157.345 142.075 157.103 142.076C155.85 142.081 160.279 141.254 163.946 140.535C167.475 139.844 169.066 139.06 170.233 138.647C171.011 138.372 171.744 138.097 172.224 137.961C172.412 137.908 172.297 137.554 172.5 137.414C173.07 137.02 173.939 137.342 174.521 137.614C176.041 138.328 176.75 139.669 177.574 140.597C178.441 141.573 179.15 142.62 180.215 143.273C181.343 143.966 182.648 144.884 183.781 145.776C185.475 147.11 186.698 148.454 187.143 148.693C187.358 148.808 187.385 149.135 187.284 149.343C186.292 149.962 184.381 150.917 183.103 151.847C182.862 152.02 182.59 152.156 182.105 152.296" stroke="#00B9AA" stroke-width="10" stroke-linecap="round"/>
<g clip-path="url(#clip0_10_11)">
<path d="M94.6169 210.58C88.2339 210.58 81.9162 208.23 75.7833 205.953C69.0222 203.441 62.0417 200.846 55.0915 201.459L38.1617 202.96V137.03L47.3373 136.215C53.0965 135.713 57.9146 137.949 62.5741 140.12C66.975 142.169 71.139 144.128 75.9224 143.715L106.487 138.169C117.408 136.313 123.419 142.654 127.064 148.429L160.51 132.881C173.048 127.252 187.118 132.903 195.568 146.929C197.765 150.576 196.541 155.418 192.844 157.726C188.513 160.427 184.197 163.131 179.929 165.808C142.694 189.136 110.54 209.282 96.801 210.484C96.0729 210.549 95.3449 210.58 94.6169 210.58ZM57.2322 197.019C64.2171 197.019 70.8543 199.485 77.2959 201.878C83.9678 204.36 90.2703 206.698 96.4185 206.155C109.117 205.044 142.392 184.196 177.618 162.122C181.891 159.447 186.207 156.739 190.541 154.036C192.236 152.979 192.821 150.795 191.843 149.17C184.582 137.121 172.711 132.157 162.316 136.834L125.312 154.036L124.321 152.306C121.018 146.551 116.413 140.883 107.241 142.45L76.4874 148.02C70.3479 148.526 65.4602 146.255 60.7399 144.058C56.4107 142.039 52.3097 140.129 47.7241 140.544L42.5105 141.007V198.21L54.709 197.127C55.5544 197.053 56.3955 197.019 57.2322 197.019Z" fill="#292929"/>
<path d="M86.0432 178.496C85.0283 178.496 84.1199 177.783 83.9156 176.748C83.6809 175.571 84.4437 174.427 85.6216 174.191C97.7267 171.772 111.338 166.234 127.179 157.285L124.323 152.306C123.726 151.265 124.086 149.935 125.125 149.339C126.166 148.746 127.496 149.104 128.092 150.141L132.032 157.011C132.627 158.052 132.269 159.38 131.232 159.975C114.165 169.8 99.5262 175.844 86.4714 178.452C86.3279 178.483 86.1845 178.496 86.0432 178.496Z" fill="#292929"/>
<path d="M34.8605 210.58H8.75515C4.53682 210.58 1.10522 207.148 1.10522 202.93L1.10522 132.759C1.10522 128.543 4.53682 125.109 8.75515 125.109H34.8605C39.0788 125.109 42.5104 128.541 42.5104 132.759V202.93C42.5083 207.148 39.0767 210.58 34.8605 210.58ZM8.75515 129.458C6.93394 129.458 5.45177 130.94 5.45177 132.761L5.45177 202.93C5.45177 204.751 6.93394 206.233 8.75515 206.233H34.8605C36.6817 206.233 38.1639 204.751 38.1639 202.93V132.759C38.1639 130.938 36.6817 129.456 34.8605 129.456L8.75515 129.458Z" fill="#292929"/>
<path d="M3.37903 139L4.1987 142.947L4.8521 145.788L5.82639 149.26L7.12155 153.361L8.25045 156.357L9.37935 159.353L11.3046 163.134L13.2299 166.914L15.9515 171.48L21.7041 179.659L27.9204 186.413L34.7669 192.845C34.7669 192.845 39.4179 196.28 42.3981 198.481L45.4173 200.514L47.1647 201.608L48.912 202.702" stroke="#292929" stroke-width="3.5"/>
</g>
<mask id="path-18-outside-1_10_11" maskUnits="userSpaceOnUse" x="192" y="10" width="630" height="175" fill="black">
<rect fill="white" x="192" y="10" width="630" height="175"/>
<path d="M241.1 148.62C236.9 148.62 233.3 147.6 230.3 145.56C227.42 143.4 225.02 140.22 223.1 136.02L197.36 77.16C195.92 73.56 195.44 70.2 195.92 67.08C196.4 63.96 197.9 61.5 200.42 59.7C203.06 57.78 206.66 56.82 211.22 56.82C215.06 56.82 218.12 57.72 220.4 59.52C222.8 61.2 224.96 64.56 226.88 69.6L245.06 116.4H238.94L258.02 69.42C259.94 64.5 262.1 61.2 264.5 59.52C266.9 57.72 270.2 56.82 274.4 56.82C278 56.82 280.88 57.78 283.04 59.7C285.32 61.5 286.7 63.96 287.18 67.08C287.66 70.2 287.06 73.56 285.38 77.16L259.1 136.2C257.3 140.4 254.9 143.52 251.9 145.56C249.02 147.6 245.42 148.62 241.1 148.62ZM345.373 148.98C334.573 148.98 325.213 147.12 317.293 143.4C309.493 139.56 303.493 134.16 299.293 127.2C295.093 120.24 292.993 112.02 292.993 102.54C292.993 93.42 294.973 85.44 298.933 78.6C303.013 71.64 308.533 66.24 315.493 62.4C322.573 58.44 330.613 56.46 339.613 56.46C346.213 56.46 352.213 57.54 357.613 59.7C363.013 61.74 367.633 64.8 371.473 68.88C375.313 72.84 378.193 77.64 380.113 83.28C382.153 88.92 383.173 95.22 383.173 102.18C383.173 104.58 382.513 106.38 381.193 107.58C379.873 108.66 377.773 109.2 374.893 109.2H319.813V94.08H359.773L356.893 96.42C356.893 91.98 356.293 88.38 355.093 85.62C353.893 82.86 352.093 80.76 349.693 79.32C347.413 77.88 344.533 77.16 341.053 77.16C337.333 77.16 334.093 78.06 331.333 79.86C328.693 81.54 326.653 84.06 325.213 87.42C323.773 90.78 323.053 94.98 323.053 100.02V101.64C323.053 110.16 324.913 116.28 328.633 120C332.473 123.6 338.353 125.4 346.273 125.4C348.913 125.4 351.913 125.1 355.273 124.5C358.753 123.78 362.053 122.82 365.173 121.62C368.293 120.42 370.993 120.24 373.273 121.08C375.553 121.8 377.293 123.12 378.493 125.04C379.813 126.84 380.533 128.94 380.653 131.34C380.773 133.62 380.233 135.9 379.033 138.18C377.833 140.34 375.853 142.02 373.093 143.22C368.893 145.14 364.393 146.58 359.593 147.54C354.913 148.5 350.173 148.98 345.373 148.98ZM413.357 148.62C408.077 148.62 403.997 147.24 401.117 144.48C398.357 141.72 396.977 137.7 396.977 132.42V72.84C396.977 67.68 398.297 63.72 400.937 60.96C403.697 58.2 407.597 56.82 412.637 56.82C417.677 56.82 421.517 58.2 424.157 60.96C426.797 63.72 428.117 67.68 428.117 72.84V80.22H426.317C427.517 73.02 430.577 67.32 435.497 63.12C440.537 58.92 446.777 56.7 454.217 56.46C457.697 56.34 460.277 57.24 461.957 59.16C463.757 60.96 464.717 64.38 464.837 69.42C464.837 73.74 463.937 77.16 462.137 79.68C460.337 82.2 456.917 83.7 451.877 84.18L447.737 84.54C441.377 85.14 436.757 86.94 433.877 89.94C430.997 92.82 429.557 97.14 429.557 102.9V132.42C429.557 137.7 428.177 141.72 425.417 144.48C422.657 147.24 418.637 148.62 413.357 148.62ZM517.362 181.38C510.762 181.38 504.582 180.9 498.822 179.94C493.062 179.1 488.082 177.84 483.882 176.16C480.402 174.96 477.942 173.22 476.502 170.94C475.062 168.66 474.402 166.26 474.522 163.74C474.642 161.22 475.302 158.94 476.502 156.9C477.822 154.86 479.562 153.36 481.722 152.4C483.882 151.56 486.282 151.62 488.922 152.58C494.202 154.74 499.002 156.12 503.322 156.72C507.642 157.44 511.302 157.8 514.302 157.8C521.622 157.8 527.082 156.24 530.682 153.12C534.402 150.12 536.262 145.38 536.262 138.9V127.56H537.702C535.902 132.6 532.242 136.74 526.722 139.98C521.202 143.1 515.202 144.66 508.722 144.66C500.802 144.66 493.902 142.86 488.022 139.26C482.142 135.54 477.522 130.38 474.162 123.78C470.922 117.18 469.302 109.44 469.302 100.56C469.302 93.84 470.262 87.78 472.182 82.38C474.102 76.98 476.742 72.36 480.102 68.52C483.582 64.68 487.722 61.74 492.522 59.7C497.442 57.54 502.842 56.46 508.722 56.46C515.442 56.46 521.442 58.02 526.722 61.14C532.122 64.26 535.722 68.34 537.522 73.38L535.722 80.76V72.84C535.722 67.68 537.102 63.72 539.862 60.96C542.742 58.2 546.702 56.82 551.742 56.82C556.782 56.82 560.622 58.2 563.262 60.96C566.022 63.72 567.402 67.68 567.402 72.84V135.12C567.402 150.48 563.082 162 554.442 169.68C545.802 177.48 533.442 181.38 517.362 181.38ZM518.622 121.08C522.222 121.08 525.282 120.3 527.802 118.74C530.322 117.06 532.302 114.72 533.742 111.72C535.182 108.6 535.902 104.88 535.902 100.56C535.902 94.08 534.342 89.04 531.222 85.44C528.102 81.84 523.902 80.04 518.622 80.04C515.262 80.04 512.262 80.88 509.622 82.56C506.982 84.12 504.942 86.46 503.502 89.58C502.182 92.58 501.522 96.24 501.522 100.56C501.522 107.04 503.082 112.08 506.202 115.68C509.322 119.28 513.462 121.08 518.622 121.08ZM601.958 148.62C596.918 148.62 593.018 147.12 590.258 144.12C587.498 141.12 586.118 136.8 586.118 131.16V74.28C586.118 68.64 587.498 64.32 590.258 61.32C593.018 58.32 596.918 56.82 601.958 56.82C607.118 56.82 611.078 58.32 613.838 61.32C616.718 64.32 618.158 68.64 618.158 74.28V131.16C618.158 136.8 616.778 141.12 614.018 144.12C611.258 147.12 607.238 148.62 601.958 148.62ZM601.958 44.04C596.318 44.04 591.938 42.72 588.818 40.08C585.818 37.44 584.318 33.6 584.318 28.56C584.318 23.64 585.818 19.86 588.818 17.22C591.938 14.58 596.318 13.26 601.958 13.26C607.838 13.26 612.278 14.58 615.278 17.22C618.278 19.86 619.778 23.64 619.778 28.56C619.778 33.6 618.278 37.44 615.278 40.08C612.278 42.72 607.838 44.04 601.958 44.04ZM675.983 148.62C671.783 148.62 668.183 147.6 665.183 145.56C662.303 143.4 659.903 140.22 657.983 136.02L632.243 77.16C630.803 73.56 630.323 70.2 630.803 67.08C631.283 63.96 632.783 61.5 635.303 59.7C637.943 57.78 641.543 56.82 646.103 56.82C649.943 56.82 653.003 57.72 655.283 59.52C657.683 61.2 659.843 64.56 661.763 69.6L679.943 116.4H673.823L692.903 69.42C694.823 64.5 696.983 61.2 699.383 59.52C701.783 57.72 705.083 56.82 709.283 56.82C712.883 56.82 715.763 57.78 717.923 59.7C720.203 61.5 721.583 63.96 722.063 67.08C722.543 70.2 721.943 73.56 720.263 77.16L693.983 136.2C692.183 140.4 689.783 143.52 686.783 145.56C683.903 147.6 680.303 148.62 675.983 148.62ZM780.256 148.98C769.456 148.98 760.096 147.12 752.176 143.4C744.376 139.56 738.376 134.16 734.176 127.2C729.976 120.24 727.876 112.02 727.876 102.54C727.876 93.42 729.856 85.44 733.816 78.6C737.896 71.64 743.416 66.24 750.376 62.4C757.456 58.44 765.496 56.46 774.496 56.46C781.096 56.46 787.096 57.54 792.496 59.7C797.896 61.74 802.516 64.8 806.356 68.88C810.196 72.84 813.076 77.64 814.996 83.28C817.036 88.92 818.056 95.22 818.056 102.18C818.056 104.58 817.396 106.38 816.076 107.58C814.756 108.66 812.656 109.2 809.776 109.2H754.696V94.08H794.656L791.776 96.42C791.776 91.98 791.176 88.38 789.976 85.62C788.776 82.86 786.976 80.76 784.576 79.32C782.296 77.88 779.416 77.16 775.936 77.16C772.216 77.16 768.976 78.06 766.216 79.86C763.576 81.54 761.536 84.06 760.096 87.42C758.656 90.78 757.936 94.98 757.936 100.02V101.64C757.936 110.16 759.796 116.28 763.516 120C767.356 123.6 773.236 125.4 781.156 125.4C783.796 125.4 786.796 125.1 790.156 124.5C793.636 123.78 796.936 122.82 800.056 121.62C803.176 120.42 805.876 120.24 808.156 121.08C810.436 121.8 812.176 123.12 813.376 125.04C814.696 126.84 815.416 128.94 815.536 131.34C815.656 133.62 815.116 135.9 813.916 138.18C812.716 140.34 810.736 142.02 807.976 143.22C803.776 145.14 799.276 146.58 794.476 147.54C789.796 148.5 785.056 148.98 780.256 148.98Z"/>
</mask>
<path d="M241.1 148.62C236.9 148.62 233.3 147.6 230.3 145.56C227.42 143.4 225.02 140.22 223.1 136.02L197.36 77.16C195.92 73.56 195.44 70.2 195.92 67.08C196.4 63.96 197.9 61.5 200.42 59.7C203.06 57.78 206.66 56.82 211.22 56.82C215.06 56.82 218.12 57.72 220.4 59.52C222.8 61.2 224.96 64.56 226.88 69.6L245.06 116.4H238.94L258.02 69.42C259.94 64.5 262.1 61.2 264.5 59.52C266.9 57.72 270.2 56.82 274.4 56.82C278 56.82 280.88 57.78 283.04 59.7C285.32 61.5 286.7 63.96 287.18 67.08C287.66 70.2 287.06 73.56 285.38 77.16L259.1 136.2C257.3 140.4 254.9 143.52 251.9 145.56C249.02 147.6 245.42 148.62 241.1 148.62ZM345.373 148.98C334.573 148.98 325.213 147.12 317.293 143.4C309.493 139.56 303.493 134.16 299.293 127.2C295.093 120.24 292.993 112.02 292.993 102.54C292.993 93.42 294.973 85.44 298.933 78.6C303.013 71.64 308.533 66.24 315.493 62.4C322.573 58.44 330.613 56.46 339.613 56.46C346.213 56.46 352.213 57.54 357.613 59.7C363.013 61.74 367.633 64.8 371.473 68.88C375.313 72.84 378.193 77.64 380.113 83.28C382.153 88.92 383.173 95.22 383.173 102.18C383.173 104.58 382.513 106.38 381.193 107.58C379.873 108.66 377.773 109.2 374.893 109.2H319.813V94.08H359.773L356.893 96.42C356.893 91.98 356.293 88.38 355.093 85.62C353.893 82.86 352.093 80.76 349.693 79.32C347.413 77.88 344.533 77.16 341.053 77.16C337.333 77.16 334.093 78.06 331.333 79.86C328.693 81.54 326.653 84.06 325.213 87.42C323.773 90.78 323.053 94.98 323.053 100.02V101.64C323.053 110.16 324.913 116.28 328.633 120C332.473 123.6 338.353 125.4 346.273 125.4C348.913 125.4 351.913 125.1 355.273 124.5C358.753 123.78 362.053 122.82 365.173 121.62C368.293 120.42 370.993 120.24 373.273 121.08C375.553 121.8 377.293 123.12 378.493 125.04C379.813 126.84 380.533 128.94 380.653 131.34C380.773 133.62 380.233 135.9 379.033 138.18C377.833 140.34 375.853 142.02 373.093 143.22C368.893 145.14 364.393 146.58 359.593 147.54C354.913 148.5 350.173 148.98 345.373 148.98ZM413.357 148.62C408.077 148.62 403.997 147.24 401.117 144.48C398.357 141.72 396.977 137.7 396.977 132.42V72.84C396.977 67.68 398.297 63.72 400.937 60.96C403.697 58.2 407.597 56.82 412.637 56.82C417.677 56.82 421.517 58.2 424.157 60.96C426.797 63.72 428.117 67.68 428.117 72.84V80.22H426.317C427.517 73.02 430.577 67.32 435.497 63.12C440.537 58.92 446.777 56.7 454.217 56.46C457.697 56.34 460.277 57.24 461.957 59.16C463.757 60.96 464.717 64.38 464.837 69.42C464.837 73.74 463.937 77.16 462.137 79.68C460.337 82.2 456.917 83.7 451.877 84.18L447.737 84.54C441.377 85.14 436.757 86.94 433.877 89.94C430.997 92.82 429.557 97.14 429.557 102.9V132.42C429.557 137.7 428.177 141.72 425.417 144.48C422.657 147.24 418.637 148.62 413.357 148.62ZM517.362 181.38C510.762 181.38 504.582 180.9 498.822 179.94C493.062 179.1 488.082 177.84 483.882 176.16C480.402 174.96 477.942 173.22 476.502 170.94C475.062 168.66 474.402 166.26 474.522 163.74C474.642 161.22 475.302 158.94 476.502 156.9C477.822 154.86 479.562 153.36 481.722 152.4C483.882 151.56 486.282 151.62 488.922 152.58C494.202 154.74 499.002 156.12 503.322 156.72C507.642 157.44 511.302 157.8 514.302 157.8C521.622 157.8 527.082 156.24 530.682 153.12C534.402 150.12 536.262 145.38 536.262 138.9V127.56H537.702C535.902 132.6 532.242 136.74 526.722 139.98C521.202 143.1 515.202 144.66 508.722 144.66C500.802 144.66 493.902 142.86 488.022 139.26C482.142 135.54 477.522 130.38 474.162 123.78C470.922 117.18 469.302 109.44 469.302 100.56C469.302 93.84 470.262 87.78 472.182 82.38C474.102 76.98 476.742 72.36 480.102 68.52C483.582 64.68 487.722 61.74 492.522 59.7C497.442 57.54 502.842 56.46 508.722 56.46C515.442 56.46 521.442 58.02 526.722 61.14C532.122 64.26 535.722 68.34 537.522 73.38L535.722 80.76V72.84C535.722 67.68 537.102 63.72 539.862 60.96C542.742 58.2 546.702 56.82 551.742 56.82C556.782 56.82 560.622 58.2 563.262 60.96C566.022 63.72 567.402 67.68 567.402 72.84V135.12C567.402 150.48 563.082 162 554.442 169.68C545.802 177.48 533.442 181.38 517.362 181.38ZM518.622 121.08C522.222 121.08 525.282 120.3 527.802 118.74C530.322 117.06 532.302 114.72 533.742 111.72C535.182 108.6 535.902 104.88 535.902 100.56C535.902 94.08 534.342 89.04 531.222 85.44C528.102 81.84 523.902 80.04 518.622 80.04C515.262 80.04 512.262 80.88 509.622 82.56C506.982 84.12 504.942 86.46 503.502 89.58C502.182 92.58 501.522 96.24 501.522 100.56C501.522 107.04 503.082 112.08 506.202 115.68C509.322 119.28 513.462 121.08 518.622 121.08ZM601.958 148.62C596.918 148.62 593.018 147.12 590.258 144.12C587.498 141.12 586.118 136.8 586.118 131.16V74.28C586.118 68.64 587.498 64.32 590.258 61.32C593.018 58.32 596.918 56.82 601.958 56.82C607.118 56.82 611.078 58.32 613.838 61.32C616.718 64.32 618.158 68.64 618.158 74.28V131.16C618.158 136.8 616.778 141.12 614.018 144.12C611.258 147.12 607.238 148.62 601.958 148.62ZM601.958 44.04C596.318 44.04 591.938 42.72 588.818 40.08C585.818 37.44 584.318 33.6 584.318 28.56C584.318 23.64 585.818 19.86 588.818 17.22C591.938 14.58 596.318 13.26 601.958 13.26C607.838 13.26 612.278 14.58 615.278 17.22C618.278 19.86 619.778 23.64 619.778 28.56C619.778 33.6 618.278 37.44 615.278 40.08C612.278 42.72 607.838 44.04 601.958 44.04ZM675.983 148.62C671.783 148.62 668.183 147.6 665.183 145.56C662.303 143.4 659.903 140.22 657.983 136.02L632.243 77.16C630.803 73.56 630.323 70.2 630.803 67.08C631.283 63.96 632.783 61.5 635.303 59.7C637.943 57.78 641.543 56.82 646.103 56.82C649.943 56.82 653.003 57.72 655.283 59.52C657.683 61.2 659.843 64.56 661.763 69.6L679.943 116.4H673.823L692.903 69.42C694.823 64.5 696.983 61.2 699.383 59.52C701.783 57.72 705.083 56.82 709.283 56.82C712.883 56.82 715.763 57.78 717.923 59.7C720.203 61.5 721.583 63.96 722.063 67.08C722.543 70.2 721.943 73.56 720.263 77.16L693.983 136.2C692.183 140.4 689.783 143.52 686.783 145.56C683.903 147.6 680.303 148.62 675.983 148.62ZM780.256 148.98C769.456 148.98 760.096 147.12 752.176 143.4C744.376 139.56 738.376 134.16 734.176 127.2C729.976 120.24 727.876 112.02 727.876 102.54C727.876 93.42 729.856 85.44 733.816 78.6C737.896 71.64 743.416 66.24 750.376 62.4C757.456 58.44 765.496 56.46 774.496 56.46C781.096 56.46 787.096 57.54 792.496 59.7C797.896 61.74 802.516 64.8 806.356 68.88C810.196 72.84 813.076 77.64 814.996 83.28C817.036 88.92 818.056 95.22 818.056 102.18C818.056 104.58 817.396 106.38 816.076 107.58C814.756 108.66 812.656 109.2 809.776 109.2H754.696V94.08H794.656L791.776 96.42C791.776 91.98 791.176 88.38 789.976 85.62C788.776 82.86 786.976 80.76 784.576 79.32C782.296 77.88 779.416 77.16 775.936 77.16C772.216 77.16 768.976 78.06 766.216 79.86C763.576 81.54 761.536 84.06 760.096 87.42C758.656 90.78 757.936 94.98 757.936 100.02V101.64C757.936 110.16 759.796 116.28 763.516 120C767.356 123.6 773.236 125.4 781.156 125.4C783.796 125.4 786.796 125.1 790.156 124.5C793.636 123.78 796.936 122.82 800.056 121.62C803.176 120.42 805.876 120.24 808.156 121.08C810.436 121.8 812.176 123.12 813.376 125.04C814.696 126.84 815.416 128.94 815.536 131.34C815.656 133.62 815.116 135.9 813.916 138.18C812.716 140.34 810.736 142.02 807.976 143.22C803.776 145.14 799.276 146.58 794.476 147.54C789.796 148.5 785.056 148.98 780.256 148.98Z" fill="url(#paint2_linear_10_11)"/>
<path d="M230.3 145.56L228.5 147.96L228.555 148.002L228.613 148.041L230.3 145.56ZM223.1 136.02L220.351 137.222L220.361 137.245L220.371 137.267L223.1 136.02ZM197.36 77.16L194.574 78.2742L194.592 78.3184L194.611 78.362L197.36 77.16ZM195.92 67.08L192.955 66.6238L192.955 66.6238L195.92 67.08ZM200.42 59.7L202.164 62.1412L202.174 62.1337L202.184 62.1262L200.42 59.7ZM220.4 59.52L218.541 61.8746L218.609 61.9282L218.679 61.9777L220.4 59.52ZM226.88 69.6L224.076 70.668L224.08 70.6772L224.083 70.6863L226.88 69.6ZM245.06 116.4V119.4H249.444L247.856 115.314L245.06 116.4ZM238.94 116.4L236.16 115.271L234.484 119.4H238.94V116.4ZM258.02 69.42L260.799 70.5488L260.807 70.5298L260.815 70.5106L258.02 69.42ZM264.5 59.52L266.22 61.9777L266.261 61.9495L266.3 61.92L264.5 59.52ZM283.04 59.7L281.047 61.9422L281.112 62.0004L281.181 62.0546L283.04 59.7ZM287.18 67.08L290.145 66.6238L290.145 66.6238L287.18 67.08ZM285.38 77.16L282.661 75.8913L282.65 75.9156L282.639 75.94L285.38 77.16ZM259.1 136.2L256.359 134.98L256.351 134.999L256.342 135.018L259.1 136.2ZM251.9 145.56L250.213 143.079L250.189 143.095L250.166 143.112L251.9 145.56ZM241.1 148.62V145.62C237.404 145.62 234.414 144.73 231.987 143.079L230.3 145.56L228.613 148.041C232.185 150.47 236.396 151.62 241.1 151.62V148.62ZM230.3 145.56L232.1 143.16C229.718 141.374 227.597 138.643 225.828 134.773L223.1 136.02L220.371 137.267C222.442 141.797 225.121 145.426 228.5 147.96L230.3 145.56ZM223.1 136.02L225.849 134.818L200.109 75.958L197.36 77.16L194.611 78.362L220.351 137.222L223.1 136.02ZM197.36 77.16L200.145 76.0458C198.859 72.8306 198.503 70.0173 198.885 67.5362L195.92 67.08L192.955 66.6238C192.376 70.3827 192.981 74.2894 194.574 78.2742L197.36 77.16ZM195.92 67.08L198.885 67.5362C199.245 65.198 200.316 63.461 202.164 62.1412L200.42 59.7L198.676 57.2588C195.484 59.5389 193.555 62.722 192.955 66.6238L195.92 67.08ZM200.42 59.7L202.184 62.1262C204.144 60.7011 207.049 59.82 211.22 59.82V56.82V53.82C206.271 53.82 201.976 54.8589 198.655 57.2738L200.42 59.7ZM211.22 56.82V59.82C214.603 59.82 216.939 60.61 218.541 61.8746L220.4 59.52L222.259 57.1653C219.301 54.83 215.517 53.82 211.22 53.82V56.82ZM220.4 59.52L218.679 61.9777C220.323 63.1281 222.215 65.7827 224.076 70.668L226.88 69.6L229.683 68.532C227.704 63.3372 225.277 59.2719 222.12 57.0623L220.4 59.52ZM226.88 69.6L224.083 70.6863L242.263 117.486L245.06 116.4L247.856 115.314L229.676 68.5137L226.88 69.6ZM245.06 116.4V113.4H238.94V116.4V119.4H245.06V116.4ZM238.94 116.4L241.719 117.529L260.799 70.5488L258.02 69.42L255.24 68.2912L236.16 115.271L238.94 116.4ZM258.02 69.42L260.815 70.5106C262.669 65.7579 264.559 63.1406 266.22 61.9777L264.5 59.52L262.779 57.0623C259.641 59.2594 257.21 63.2421 255.225 68.3294L258.02 69.42ZM264.5 59.52L266.3 61.92C268.009 60.6381 270.596 59.82 274.4 59.82V56.82V53.82C269.804 53.82 265.791 54.8019 262.7 57.12L264.5 59.52ZM274.4 56.82V59.82C277.453 59.82 279.562 60.622 281.047 61.9422L283.04 59.7L285.033 57.4578C282.198 54.9379 278.547 53.82 274.4 53.82V56.82ZM283.04 59.7L281.181 62.0546C282.811 63.3418 283.839 65.0952 284.215 67.5362L287.18 67.08L290.145 66.6238C289.561 62.8248 287.828 59.6581 284.899 57.3453L283.04 59.7ZM287.18 67.08L284.215 67.5362C284.584 69.9343 284.155 72.6902 282.661 75.8913L285.38 77.16L288.098 78.4287C289.965 74.4298 290.736 70.4657 290.145 66.6238L287.18 67.08ZM285.38 77.16L282.639 75.94L256.359 134.98L259.1 136.2L261.841 137.42L288.121 78.38L285.38 77.16ZM259.1 136.2L256.342 135.018C254.71 138.828 252.63 141.435 250.213 143.079L251.9 145.56L253.587 148.041C257.169 145.605 259.89 141.972 261.857 137.382L259.1 136.2ZM251.9 145.56L250.166 143.112C247.897 144.719 244.94 145.62 241.1 145.62V148.62V151.62C245.9 151.62 250.143 150.481 253.634 148.008L251.9 145.56ZM317.293 143.4L315.968 146.092L315.993 146.104L316.018 146.115L317.293 143.4ZM299.293 127.2L296.725 128.75L296.725 128.75L299.293 127.2ZM298.933 78.6L296.345 77.0828L296.341 77.0899L296.337 77.0969L298.933 78.6ZM315.493 62.4L316.943 65.0267L316.95 65.0225L316.958 65.0183L315.493 62.4ZM357.613 59.7L356.499 62.4854L356.526 62.4962L356.553 62.5064L357.613 59.7ZM371.473 68.88L369.289 70.9361L369.304 70.9524L369.32 70.9684L371.473 68.88ZM380.113 83.28L377.273 84.2468L377.283 84.2737L377.292 84.3004L380.113 83.28ZM381.193 107.58L383.093 109.902L383.154 109.852L383.211 109.8L381.193 107.58ZM319.813 109.2H316.813V112.2H319.813V109.2ZM319.813 94.08V91.08H316.813V94.08H319.813ZM359.773 94.08L361.665 96.4083L368.223 91.08H359.773V94.08ZM356.893 96.42H353.893V102.723L358.785 98.7483L356.893 96.42ZM349.693 79.32L348.091 81.8565L348.12 81.8748L348.15 81.8925L349.693 79.32ZM331.333 79.86L332.944 82.391L332.958 82.382L332.972 82.3728L331.333 79.86ZM325.213 87.42L322.456 86.2382L322.456 86.2382L325.213 87.42ZM328.633 120L326.512 122.121L326.546 122.156L326.581 122.189L328.633 120ZM355.273 124.5L355.801 127.453L355.841 127.446L355.881 127.438L355.273 124.5ZM365.173 121.62L366.25 124.42L366.25 124.42L365.173 121.62ZM373.273 121.08L372.236 123.895L372.303 123.919L372.37 123.941L373.273 121.08ZM378.493 125.04L375.949 126.63L376.008 126.724L376.074 126.814L378.493 125.04ZM380.653 131.34L377.657 131.49L377.657 131.498L380.653 131.34ZM379.033 138.18L381.656 139.637L381.672 139.607L381.688 139.577L379.033 138.18ZM373.093 143.22L371.897 140.469L371.871 140.48L371.846 140.492L373.093 143.22ZM359.593 147.54L359.005 144.598L358.998 144.6L358.99 144.601L359.593 147.54ZM345.373 148.98V145.98C334.913 145.98 326.007 144.179 318.569 140.685L317.293 143.4L316.018 146.115C324.419 150.061 334.233 151.98 345.373 151.98V148.98ZM317.293 143.4L318.618 140.708C311.296 137.104 305.744 132.084 301.862 125.65L299.293 127.2L296.725 128.75C301.242 136.236 307.69 142.016 315.968 146.092L317.293 143.4ZM299.293 127.2L301.862 125.65C297.988 119.231 295.993 111.566 295.993 102.54H292.993H289.993C289.993 112.474 292.198 121.249 296.725 128.75L299.293 127.2ZM292.993 102.54H295.993C295.993 93.8655 297.872 86.42 301.53 80.1031L298.933 78.6L296.337 77.0969C292.074 84.46 289.993 92.9745 289.993 102.54H292.993ZM298.933 78.6L301.521 80.1172C305.333 73.6154 310.462 68.602 316.943 65.0267L315.493 62.4L314.044 59.7733C306.604 63.878 300.694 69.6646 296.345 77.0828L298.933 78.6ZM315.493 62.4L316.958 65.0183C323.543 61.3351 331.069 59.46 339.613 59.46V56.46V53.46C330.158 53.46 321.604 55.5448 314.029 59.7817L315.493 62.4ZM339.613 56.46V59.46C345.883 59.46 351.498 60.485 356.499 62.4854L357.613 59.7L358.727 56.9146C352.929 54.595 346.544 53.46 339.613 53.46V56.46ZM357.613 59.7L356.553 62.5064C361.539 64.3901 365.771 67.1987 369.289 70.9361L371.473 68.88L373.658 66.8239C369.495 62.4013 364.487 59.0899 358.674 56.8936L357.613 59.7ZM371.473 68.88L369.32 70.9684C372.827 74.5849 375.485 78.9926 377.273 84.2468L380.113 83.28L382.953 82.3132C380.902 76.2874 377.8 71.0951 373.627 66.7916L371.473 68.88ZM380.113 83.28L377.292 84.3004C379.197 89.5653 380.173 95.5131 380.173 102.18H383.173H386.173C386.173 94.9269 385.11 88.2746 382.934 82.2596L380.113 83.28ZM383.173 102.18H380.173C380.173 104.04 379.675 104.906 379.175 105.36L381.193 107.58L383.211 109.8C385.352 107.854 386.173 105.12 386.173 102.18H383.173ZM381.193 107.58L379.294 105.258C378.771 105.686 377.517 106.2 374.893 106.2V109.2V112.2C378.03 112.2 380.976 111.634 383.093 109.902L381.193 107.58ZM374.893 109.2V106.2H319.813V109.2V112.2H374.893V109.2ZM319.813 109.2H322.813V94.08H319.813H316.813V109.2H319.813ZM319.813 94.08V97.08H359.773V94.08V91.08H319.813V94.08ZM359.773 94.08L357.882 91.7517L355.002 94.0917L356.893 96.42L358.785 98.7483L361.665 96.4083L359.773 94.08ZM356.893 96.42H359.893C359.893 91.7471 359.267 87.6964 357.845 84.4238L355.093 85.62L352.342 86.8162C353.319 89.0636 353.893 92.2129 353.893 96.42H356.893ZM355.093 85.62L357.845 84.4238C356.415 81.136 354.214 78.5339 351.237 76.7475L349.693 79.32L348.15 81.8925C349.973 82.9861 351.372 84.584 352.342 86.8162L355.093 85.62ZM349.693 79.32L351.295 76.7835C348.415 74.9643 344.938 74.16 341.053 74.16V77.16V80.16C344.129 80.16 346.412 80.7956 348.091 81.8565L349.693 79.32ZM341.053 77.16V74.16C336.829 74.16 333.003 75.1895 329.695 77.3472L331.333 79.86L332.972 82.3728C335.184 80.9305 337.838 80.16 341.053 80.16V77.16ZM331.333 79.86L329.723 77.329C326.492 79.3849 324.093 82.4191 322.456 86.2382L325.213 87.42L327.971 88.6018C329.214 85.7009 330.895 83.6951 332.944 82.391L331.333 79.86ZM325.213 87.42L322.456 86.2382C320.807 90.0845 320.053 94.7177 320.053 100.02H323.053H326.053C326.053 95.2423 326.739 91.4755 327.971 88.6018L325.213 87.42ZM323.053 100.02H320.053V101.64H323.053H326.053V100.02H323.053ZM323.053 101.64H320.053C320.053 110.484 321.966 117.575 326.512 122.121L328.633 120L330.755 117.879C327.861 114.985 326.053 109.836 326.053 101.64H323.053ZM328.633 120L326.581 122.189C331.202 126.52 337.967 128.4 346.273 128.4V125.4V122.4C338.739 122.4 333.745 120.68 330.685 117.811L328.633 120ZM346.273 125.4V128.4C349.133 128.4 352.314 128.076 355.801 127.453L355.273 124.5L354.746 121.547C351.512 122.124 348.694 122.4 346.273 122.4V125.4ZM355.273 124.5L355.881 127.438C359.511 126.687 362.969 125.682 366.25 124.42L365.173 121.62L364.096 118.82C361.138 119.958 357.996 120.873 354.666 121.562L355.273 124.5ZM365.173 121.62L366.25 124.42C368.947 123.383 370.859 123.388 372.236 123.895L373.273 121.08L374.31 118.265C371.128 117.092 367.64 117.457 364.096 118.82L365.173 121.62ZM373.273 121.08L372.37 123.941C374.011 124.459 375.15 125.351 375.949 126.63L378.493 125.04L381.037 123.45C379.437 120.889 377.096 119.141 374.177 118.219L373.273 121.08ZM378.493 125.04L376.074 126.814C377.02 128.104 377.564 129.629 377.657 131.49L380.653 131.34L383.65 131.19C383.503 128.251 382.606 125.576 380.913 123.266L378.493 125.04ZM380.653 131.34L377.657 131.498C377.746 133.171 377.36 134.918 376.379 136.783L379.033 138.18L381.688 139.577C383.107 136.882 383.801 134.069 383.649 131.182L380.653 131.34ZM379.033 138.18L376.411 136.723C375.596 138.19 374.188 139.473 371.897 140.469L373.093 143.22L374.29 145.971C377.519 144.567 380.071 142.49 381.656 139.637L379.033 138.18ZM373.093 143.22L371.846 140.492C367.869 142.31 363.591 143.681 359.005 144.598L359.593 147.54L360.182 150.482C365.195 149.479 369.918 147.97 374.341 145.948L373.093 143.22ZM359.593 147.54L358.99 144.601C354.51 145.52 349.972 145.98 345.373 145.98V148.98V151.98C350.375 151.98 355.317 151.48 360.196 150.479L359.593 147.54ZM401.117 144.48L398.996 146.601L399.018 146.624L399.041 146.646L401.117 144.48ZM400.937 60.96L398.816 58.8387L398.792 58.8622L398.769 58.8863L400.937 60.96ZM424.157 60.96L421.989 63.0337L421.989 63.0337L424.157 60.96ZM428.117 80.22V83.22H431.117V80.22H428.117ZM426.317 80.22L423.358 79.7268L422.776 83.22H426.317V80.22ZM435.497 63.12L433.577 60.8153L433.563 60.8267L433.549 60.8383L435.497 63.12ZM454.217 56.46L454.314 59.4584L454.32 59.4582L454.217 56.46ZM461.957 59.16L459.699 61.1355L459.765 61.2107L459.836 61.2813L461.957 59.16ZM464.837 69.42H467.837V69.3843L467.836 69.3486L464.837 69.42ZM462.137 79.68L464.578 81.4237L464.578 81.4237L462.137 79.68ZM451.877 84.18L452.137 87.1687L452.149 87.1677L452.161 87.1665L451.877 84.18ZM447.737 84.54L447.477 81.5513L447.466 81.5522L447.455 81.5533L447.737 84.54ZM433.877 89.94L435.998 92.0613L436.02 92.0397L436.041 92.0176L433.877 89.94ZM425.417 144.48L423.296 142.359L425.417 144.48ZM413.357 148.62V145.62C408.593 145.62 405.352 144.384 403.193 142.314L401.117 144.48L399.041 146.646C402.642 150.096 407.561 151.62 413.357 151.62V148.62ZM401.117 144.48L403.238 142.359C401.217 140.337 399.977 137.193 399.977 132.42H396.977H393.977C393.977 138.207 395.498 143.103 398.996 146.601L401.117 144.48ZM396.977 132.42H399.977V72.84H396.977H393.977V132.42H396.977ZM396.977 72.84H399.977C399.977 68.1756 401.164 65.063 403.105 63.0337L400.937 60.96L398.769 58.8863C395.43 62.377 393.977 67.1844 393.977 72.84H396.977ZM400.937 60.96L403.058 63.0813C405.105 61.0347 408.151 59.82 412.637 59.82V56.82V53.82C407.044 53.82 402.289 55.3653 398.816 58.8387L400.937 60.96ZM412.637 56.82V59.82C417.132 59.82 420.08 61.0374 421.989 63.0337L424.157 60.96L426.325 58.8863C422.954 55.3626 418.223 53.82 412.637 53.82V56.82ZM424.157 60.96L421.989 63.0337C423.93 65.063 425.117 68.1756 425.117 72.84H428.117H431.117C431.117 67.1844 429.664 62.377 426.325 58.8863L424.157 60.96ZM428.117 72.84H425.117V80.22H428.117H431.117V72.84H428.117ZM428.117 80.22V77.22H426.317V80.22V83.22H428.117V80.22ZM426.317 80.22L429.276 80.7132C430.376 74.1147 433.131 69.0842 437.445 65.4017L435.497 63.12L433.549 60.8383C428.023 65.5558 424.658 71.9253 423.358 79.7268L426.317 80.22ZM435.497 63.12L437.418 65.4247C441.876 61.7096 447.447 59.6799 454.314 59.4584L454.217 56.46L454.12 53.4616C446.107 53.7201 439.198 56.1304 433.577 60.8153L435.497 63.12ZM454.217 56.46L454.32 59.4582C457.248 59.3573 458.809 60.1184 459.699 61.1355L461.957 59.16L464.215 57.1845C461.745 54.3616 458.146 53.3227 454.114 53.4618L454.217 56.46ZM461.957 59.16L459.836 61.2813C460.758 62.2035 461.721 64.5676 461.838 69.4914L464.837 69.42L467.836 69.3486C467.713 64.1924 466.756 59.7165 464.078 57.0387L461.957 59.16ZM464.837 69.42H461.837C461.837 73.3547 461.014 76.0906 459.696 77.9363L462.137 79.68L464.578 81.4237C466.86 78.2294 467.837 74.1253 467.837 69.42H464.837ZM462.137 79.68L459.696 77.9363C458.646 79.4055 456.303 80.7449 451.593 81.1935L451.877 84.18L452.161 87.1665C457.531 86.6551 462.028 84.9945 464.578 81.4237L462.137 79.68ZM451.877 84.18L451.617 81.1913L447.477 81.5513L447.737 84.54L447.997 87.5287L452.137 87.1687L451.877 84.18ZM447.737 84.54L447.455 81.5533C440.747 82.1861 435.298 84.1278 431.713 87.8624L433.877 89.94L436.041 92.0176C438.216 89.7522 442.007 88.0939 448.019 87.5267L447.737 84.54ZM433.877 89.94L431.756 87.8187C428.115 91.4597 426.557 96.6776 426.557 102.9H429.557H432.557C432.557 97.6024 433.879 94.1803 435.998 92.0613L433.877 89.94ZM429.557 102.9H426.557V132.42H429.557H432.557V102.9H429.557ZM429.557 132.42H426.557C426.557 137.193 425.318 140.337 423.296 142.359L425.417 144.48L427.538 146.601C431.037 143.103 432.557 138.207 432.557 132.42H429.557ZM425.417 144.48L423.296 142.359C421.274 144.381 418.13 145.62 413.357 145.62V148.62V151.62C419.144 151.62 424.04 150.099 427.538 146.601L425.417 144.48ZM498.822 179.94L499.315 176.981L499.285 176.976L499.255 176.971L498.822 179.94ZM483.882 176.16L484.996 173.375L484.929 173.348L484.86 173.324L483.882 176.16ZM476.502 170.94L479.038 169.338L479.038 169.338L476.502 170.94ZM474.522 163.74L471.525 163.597L471.525 163.597L474.522 163.74ZM476.502 156.9L473.983 155.27L473.948 155.324L473.916 155.379L476.502 156.9ZM481.722 152.4L480.635 149.604L480.568 149.63L480.503 149.659L481.722 152.4ZM488.922 152.58L490.058 149.803L490.003 149.781L489.947 149.761L488.922 152.58ZM503.322 156.72L503.815 153.761L503.775 153.754L503.735 153.749L503.322 156.72ZM530.682 153.12L528.799 150.785L528.757 150.818L528.717 150.853L530.682 153.12ZM536.262 127.56V124.56H533.262V127.56H536.262ZM537.702 127.56L540.527 128.569L541.959 124.56H537.702V127.56ZM526.722 139.98L528.198 142.592L528.219 142.58L528.241 142.567L526.722 139.98ZM488.022 139.26L486.418 141.795L486.437 141.807L486.455 141.819L488.022 139.26ZM474.162 123.78L471.469 125.102L471.479 125.122L471.488 125.141L474.162 123.78ZM472.182 82.38L469.355 81.375L469.355 81.375L472.182 82.38ZM480.102 68.52L477.879 66.5054L477.861 66.5248L477.844 66.5445L480.102 68.52ZM492.522 59.7L493.695 62.461L493.712 62.4541L493.728 62.4469L492.522 59.7ZM526.722 61.14L525.196 63.7228L525.208 63.7302L525.221 63.7376L526.722 61.14ZM537.522 73.38L540.436 74.0909L540.649 73.2175L540.347 72.371L537.522 73.38ZM535.722 80.76H532.722L538.636 81.4709L535.722 80.76ZM539.862 60.96L537.786 58.794L537.763 58.8161L537.741 58.8387L539.862 60.96ZM563.262 60.96L561.094 63.0337L561.117 63.0577L561.141 63.0813L563.262 60.96ZM554.442 169.68L552.449 167.438L552.44 167.445L552.432 167.453L554.442 169.68ZM527.802 118.74L529.381 121.291L529.424 121.264L529.466 121.236L527.802 118.74ZM533.742 111.72L536.446 113.018L536.456 112.998L536.466 112.977L533.742 111.72ZM531.222 85.44L533.489 83.4752L533.489 83.4752L531.222 85.44ZM509.622 82.56L511.148 85.1428L511.191 85.1176L511.233 85.091L509.622 82.56ZM503.502 89.58L500.778 88.3228L500.767 88.3472L500.756 88.3718L503.502 89.58ZM517.362 181.38V178.38C510.906 178.38 504.893 177.91 499.315 176.981L498.822 179.94L498.329 182.899C504.271 183.89 510.618 184.38 517.362 184.38V181.38ZM498.822 179.94L499.255 176.971C493.665 176.156 488.925 174.946 484.996 173.375L483.882 176.16L482.768 178.945C487.239 180.734 492.458 182.044 498.389 182.909L498.822 179.94ZM483.882 176.16L484.86 173.324C481.791 172.266 480.001 170.862 479.038 169.338L476.502 170.94L473.965 172.542C475.883 175.578 479.013 177.654 482.904 178.996L483.882 176.16ZM476.502 170.94L479.038 169.338C477.903 167.541 477.43 165.744 477.519 163.883L474.522 163.74L471.525 163.597C471.374 166.776 472.221 169.779 473.965 172.542L476.502 170.94ZM474.522 163.74L477.519 163.883C477.617 161.816 478.151 160.014 479.088 158.421L476.502 156.9L473.916 155.379C472.453 157.866 471.667 160.624 471.525 163.597L474.522 163.74ZM476.502 156.9L479.021 158.53C480.034 156.964 481.328 155.858 482.94 155.141L481.722 152.4L480.503 149.659C477.796 150.862 475.61 152.756 473.983 155.27L476.502 156.9ZM481.722 152.4L482.809 155.196C484.154 154.673 485.789 154.633 487.897 155.399L488.922 152.58L489.947 149.761C486.775 148.607 483.609 148.447 480.635 149.604L481.722 152.4ZM488.922 152.58L487.786 155.357C493.231 157.584 498.278 159.048 502.909 159.691L503.322 156.72L503.735 153.749C499.725 153.192 495.173 151.896 490.058 149.803L488.922 152.58ZM503.322 156.72L502.829 159.679C507.245 160.415 511.08 160.8 514.302 160.8V157.8V154.8C511.523 154.8 508.039 154.465 503.815 153.761L503.322 156.72ZM514.302 157.8V160.8C521.972 160.8 528.274 159.177 532.647 155.387L530.682 153.12L528.717 150.853C525.89 153.303 521.271 154.8 514.302 154.8V157.8ZM530.682 153.12L532.565 155.455C537.221 151.7 539.262 145.944 539.262 138.9H536.262H533.262C533.262 144.816 531.583 148.54 528.799 150.785L530.682 153.12ZM536.262 138.9H539.262V127.56H536.262H533.262V138.9H536.262ZM536.262 127.56V130.56H537.702V127.56V124.56H536.262V127.56ZM537.702 127.56L534.877 126.551C533.358 130.804 530.24 134.436 525.203 137.393L526.722 139.98L528.241 142.567C534.244 139.044 538.446 134.396 540.527 128.569L537.702 127.56ZM526.722 139.98L525.246 137.368C520.186 140.228 514.696 141.66 508.722 141.66V144.66V147.66C515.707 147.66 522.218 145.972 528.198 142.592L526.722 139.98ZM508.722 144.66V141.66C501.271 141.66 494.93 139.972 489.588 136.701L488.022 139.26L486.455 141.819C492.874 145.748 500.333 147.66 508.722 147.66V144.66ZM488.022 139.26L489.626 136.725C484.231 133.312 479.967 128.571 476.835 122.419L474.162 123.78L471.488 125.141C475.077 132.189 480.053 137.768 486.418 141.795L488.022 139.26ZM474.162 123.78L476.855 122.458C473.855 116.346 472.302 109.076 472.302 100.56H469.302H466.302C466.302 109.804 467.989 118.014 471.469 125.102L474.162 123.78ZM469.302 100.56H472.302C472.302 94.1246 473.221 88.4121 475.009 83.385L472.182 82.38L469.355 81.375C467.303 87.1479 466.302 93.5554 466.302 100.56H469.302ZM472.182 82.38L475.009 83.385C476.817 78.2978 479.278 74.0178 482.36 70.4955L480.102 68.52L477.844 66.5445C474.206 70.7022 471.386 75.6622 469.355 81.375L472.182 82.38ZM480.102 68.52L482.325 70.5346C485.511 67.0185 489.292 64.3322 493.695 62.461L492.522 59.7L491.348 56.939C486.151 59.1478 481.653 62.3415 477.879 66.5054L480.102 68.52ZM492.522 59.7L493.728 62.4469C498.233 60.469 503.218 59.46 508.722 59.46V56.46V53.46C502.466 53.46 496.651 54.611 491.316 56.9531L492.522 59.7ZM508.722 56.46V59.46C514.958 59.46 520.422 60.9016 525.196 63.7228L526.722 61.14L528.248 58.5572C522.462 55.1383 515.926 53.46 508.722 53.46V56.46ZM526.722 61.14L525.221 63.7376C530.113 66.5638 533.175 70.1269 534.697 74.389L537.522 73.38L540.347 72.371C538.269 66.553 534.131 61.9562 528.223 58.5424L526.722 61.14ZM537.522 73.38L534.607 72.6691L532.807 80.0491L535.722 80.76L538.636 81.4709L540.436 74.0909L537.522 73.38ZM535.722 80.76H538.722V72.84H535.722H532.722V80.76H535.722ZM535.722 72.84H538.722C538.722 68.2102 539.949 65.1153 541.983 63.0813L539.862 60.96L537.741 58.8387C534.255 62.3247 532.722 67.1498 532.722 72.84H535.722ZM539.862 60.96L541.938 63.126C544.122 61.0324 547.262 59.82 551.742 59.82V56.82V53.82C546.141 53.82 541.362 55.3676 537.786 58.794L539.862 60.96ZM551.742 56.82V59.82C556.236 59.82 559.184 61.0374 561.094 63.0337L563.262 60.96L565.43 58.8863C562.059 55.3626 557.327 53.82 551.742 53.82V56.82ZM563.262 60.96L561.141 63.0813C563.175 65.1153 564.402 68.2102 564.402 72.84H567.402H570.402C570.402 67.1498 568.869 62.3247 565.383 58.8387L563.262 60.96ZM567.402 72.84H564.402V135.12H567.402H570.402V72.84H567.402ZM567.402 135.12H564.402C564.402 149.92 560.256 160.498 552.449 167.438L554.442 169.68L556.435 171.922C565.908 163.502 570.402 151.04 570.402 135.12H567.402ZM554.442 169.68L552.432 167.453C544.523 174.593 532.984 178.38 517.362 178.38V181.38V184.38C533.9 184.38 547.081 180.367 556.452 171.907L554.442 169.68ZM518.622 121.08V124.08C522.66 124.08 526.294 123.202 529.381 121.291L527.802 118.74L526.223 116.189C524.27 117.398 521.784 118.08 518.622 118.08V121.08ZM527.802 118.74L529.466 121.236C532.478 119.228 534.797 116.454 536.446 113.018L533.742 111.72L531.037 110.422C529.807 112.986 528.166 114.892 526.138 116.244L527.802 118.74ZM533.742 111.72L536.466 112.977C538.128 109.375 538.902 105.206 538.902 100.56H535.902H532.902C532.902 104.554 532.236 107.825 531.018 110.463L533.742 111.72ZM535.902 100.56H538.902C538.902 93.6194 537.229 87.7901 533.489 83.4752L531.222 85.44L528.955 87.4048C531.455 90.2899 532.902 94.5406 532.902 100.56H535.902ZM531.222 85.44L533.489 83.4752C529.733 79.1418 524.666 77.04 518.622 77.04V80.04V83.04C523.138 83.04 526.47 84.5382 528.955 87.4048L531.222 85.44ZM518.622 80.04V77.04C514.735 77.04 511.168 78.0199 508.011 80.029L509.622 82.56L511.233 85.091C513.355 83.74 515.789 83.04 518.622 83.04V80.04ZM509.622 82.56L508.096 79.9772C504.869 81.8839 502.441 84.719 500.778 88.3228L503.502 89.58L506.226 90.8372C507.442 88.201 509.095 86.3561 511.148 85.1428L509.622 82.56ZM503.502 89.58L500.756 88.3718C499.224 91.853 498.522 95.95 498.522 100.56H501.522H504.522C504.522 96.53 505.14 93.307 506.248 90.7882L503.502 89.58ZM501.522 100.56H498.522C498.522 107.501 500.195 113.33 503.935 117.645L506.202 115.68L508.469 113.715C505.969 110.83 504.522 106.579 504.522 100.56H501.522ZM506.202 115.68L503.935 117.645C507.676 121.962 512.674 124.08 518.622 124.08V121.08V118.08C514.25 118.08 510.968 116.598 508.469 113.715L506.202 115.68ZM590.258 144.12L592.465 142.089L592.465 142.089L590.258 144.12ZM590.258 61.32L592.465 63.3512L592.465 63.3512L590.258 61.32ZM613.838 61.32L611.63 63.3512L611.651 63.3746L611.674 63.3976L613.838 61.32ZM614.018 144.12L616.225 146.151L616.225 146.151L614.018 144.12ZM588.818 40.08L586.836 42.3321L586.858 42.3514L586.88 42.3702L588.818 40.08ZM588.818 17.22L586.88 14.9298L586.858 14.9486L586.836 14.9679L588.818 17.22ZM615.278 17.22L613.296 19.4721L613.296 19.4721L615.278 17.22ZM615.278 40.08L617.26 42.3321L617.26 42.3321L615.278 40.08ZM601.958 148.62V145.62C597.544 145.62 594.528 144.33 592.465 142.089L590.258 144.12L588.05 146.151C591.508 149.91 596.292 151.62 601.958 151.62V148.62ZM590.258 144.12L592.465 142.089C590.382 139.825 589.118 136.338 589.118 131.16H586.118H583.118C583.118 137.262 584.613 142.415 588.05 146.151L590.258 144.12ZM586.118 131.16H589.118V74.28H586.118H583.118V131.16H586.118ZM586.118 74.28H589.118C589.118 69.1019 590.382 65.6154 592.465 63.3512L590.258 61.32L588.05 59.2888C584.613 63.0246 583.118 68.1781 583.118 74.28H586.118ZM590.258 61.32L592.465 63.3512C594.528 61.1097 597.544 59.82 601.958 59.82V56.82V53.82C596.292 53.82 591.508 55.5303 588.05 59.2888L590.258 61.32ZM601.958 56.82V59.82C606.516 59.82 609.581 61.1242 611.63 63.3512L613.838 61.32L616.045 59.2888C612.574 55.5158 607.719 53.82 601.958 53.82V56.82ZM613.838 61.32L611.674 63.3976C613.85 65.6643 615.158 69.1329 615.158 74.28H618.158H621.158C621.158 68.1471 619.586 62.9756 616.002 59.2424L613.838 61.32ZM618.158 74.28H615.158V131.16H618.158H621.158V74.28H618.158ZM618.158 131.16H615.158C615.158 136.338 613.893 139.825 611.81 142.089L614.018 144.12L616.225 146.151C619.662 142.415 621.158 137.262 621.158 131.16H618.158ZM614.018 144.12L611.81 142.089C609.774 144.302 606.661 145.62 601.958 145.62V148.62V151.62C607.815 151.62 612.741 149.938 616.225 146.151L614.018 144.12ZM601.958 44.04V41.04C596.759 41.04 593.159 39.8237 590.756 37.7898L588.818 40.08L586.88 42.3702C590.716 45.6163 595.877 47.04 601.958 47.04V44.04ZM588.818 40.08L590.8 37.8279C588.609 35.8999 587.318 32.98 587.318 28.56H584.318H581.318C581.318 34.22 583.027 38.9801 586.836 42.3321L588.818 40.08ZM584.318 28.56H587.318C587.318 24.2861 588.593 21.4139 590.8 19.4721L588.818 17.22L586.836 14.9679C583.042 18.3061 581.318 22.9939 581.318 28.56H584.318ZM588.818 17.22L590.756 19.5102C593.159 17.4763 596.759 16.26 601.958 16.26V13.26V10.26C595.877 10.26 590.716 11.6837 586.88 14.9298L588.818 17.22ZM601.958 13.26V16.26C607.444 16.26 611.052 17.4976 613.296 19.4721L615.278 17.22L617.26 14.9679C613.503 11.6624 608.231 10.26 601.958 10.26V13.26ZM615.278 17.22L613.296 19.4721C615.502 21.4139 616.778 24.2861 616.778 28.56H619.778H622.778C622.778 22.9939 621.053 18.3061 617.26 14.9679L615.278 17.22ZM619.778 28.56H616.778C616.778 32.98 615.487 35.8999 613.296 37.8279L615.278 40.08L617.26 42.3321C621.069 38.9801 622.778 34.22 622.778 28.56H619.778ZM615.278 40.08L613.296 37.8279C611.052 39.8024 607.444 41.04 601.958 41.04V44.04V47.04C608.231 47.04 613.503 45.6376 617.26 42.3321L615.278 40.08ZM665.183 145.56L663.383 147.96L663.438 148.002L663.496 148.041L665.183 145.56ZM657.983 136.02L655.234 137.222L655.244 137.245L655.254 137.267L657.983 136.02ZM632.243 77.16L629.457 78.2742L629.475 78.3184L629.494 78.362L632.243 77.16ZM630.803 67.08L627.838 66.6238L627.838 66.6238L630.803 67.08ZM635.303 59.7L637.046 62.1412L637.057 62.1337L637.067 62.1262L635.303 59.7ZM655.283 59.52L653.424 61.8746L653.492 61.9282L653.562 61.9777L655.283 59.52ZM661.763 69.6L658.959 70.668L658.963 70.6772L658.966 70.6863L661.763 69.6ZM679.943 116.4V119.4H684.326L682.739 115.314L679.943 116.4ZM673.823 116.4L671.043 115.271L669.366 119.4H673.823V116.4ZM692.903 69.42L695.682 70.5488L695.69 70.5298L695.697 70.5106L692.903 69.42ZM699.383 59.52L701.103 61.9777L701.143 61.9495L701.183 61.92L699.383 59.52ZM717.923 59.7L715.93 61.9422L715.995 62.0004L716.064 62.0546L717.923 59.7ZM722.063 67.08L725.028 66.6238L725.028 66.6238L722.063 67.08ZM720.263 77.16L717.544 75.8913L717.533 75.9156L717.522 75.94L720.263 77.16ZM693.983 136.2L691.242 134.98L691.233 134.999L691.225 135.018L693.983 136.2ZM686.783 145.56L685.096 143.079L685.072 143.095L685.049 143.112L686.783 145.56ZM675.983 148.62V145.62C672.287 145.62 669.297 144.73 666.87 143.079L665.183 145.56L663.496 148.041C667.068 150.47 671.279 151.62 675.983 151.62V148.62ZM665.183 145.56L666.983 143.16C664.601 141.374 662.48 138.643 660.711 134.773L657.983 136.02L655.254 137.267C657.325 141.797 660.004 145.426 663.383 147.96L665.183 145.56ZM657.983 136.02L660.731 134.818L634.991 75.958L632.243 77.16L629.494 78.362L655.234 137.222L657.983 136.02ZM632.243 77.16L635.028 76.0458C633.742 72.8306 633.386 70.0173 633.768 67.5362L630.803 67.08L627.838 66.6238C627.259 70.3827 627.863 74.2894 629.457 78.2742L632.243 77.16ZM630.803 67.08L633.768 67.5362C634.128 65.198 635.199 63.461 637.046 62.1412L635.303 59.7L633.559 57.2588C630.367 59.5389 628.438 62.722 627.838 66.6238L630.803 67.08ZM635.303 59.7L637.067 62.1262C639.027 60.7011 641.932 59.82 646.103 59.82V56.82V53.82C641.154 53.82 636.859 54.8589 633.538 57.2738L635.303 59.7ZM646.103 56.82V59.82C649.486 59.82 651.822 60.61 653.424 61.8746L655.283 59.52L657.142 57.1653C654.183 54.83 650.4 53.82 646.103 53.82V56.82ZM655.283 59.52L653.562 61.9777C655.206 63.1281 657.098 65.7827 658.959 70.668L661.763 69.6L664.566 68.532C662.587 63.3372 660.16 59.2719 657.003 57.0623L655.283 59.52ZM661.763 69.6L658.966 70.6863L677.146 117.486L679.943 116.4L682.739 115.314L664.559 68.5137L661.763 69.6ZM679.943 116.4V113.4H673.823V116.4V119.4H679.943V116.4ZM673.823 116.4L676.602 117.529L695.682 70.5488L692.903 69.42L690.123 68.2912L671.043 115.271L673.823 116.4ZM692.903 69.42L695.697 70.5106C697.552 65.7579 699.442 63.1406 701.103 61.9777L699.383 59.52L697.662 57.0623C694.524 59.2594 692.093 63.2421 690.108 68.3294L692.903 69.42ZM699.383 59.52L701.183 61.92C702.892 60.6381 705.478 59.82 709.283 59.82V56.82V53.82C704.687 53.82 700.674 54.8019 697.583 57.12L699.383 59.52ZM709.283 56.82V59.82C712.336 59.82 714.444 60.622 715.93 61.9422L717.923 59.7L719.916 57.4578C717.081 54.9379 713.43 53.82 709.283 53.82V56.82ZM717.923 59.7L716.064 62.0546C717.694 63.3418 718.722 65.0952 719.098 67.5362L722.063 67.08L725.028 66.6238C724.443 62.8248 722.711 59.6581 719.782 57.3453L717.923 59.7ZM722.063 67.08L719.098 67.5362C719.467 69.9343 719.038 72.6902 717.544 75.8913L720.263 77.16L722.981 78.4287C724.847 74.4298 725.619 70.4657 725.028 66.6238L722.063 67.08ZM720.263 77.16L717.522 75.94L691.242 134.98L693.983 136.2L696.723 137.42L723.003 78.38L720.263 77.16ZM693.983 136.2L691.225 135.018C689.593 138.828 687.513 141.435 685.096 143.079L686.783 145.56L688.47 148.041C692.052 145.605 694.773 141.972 696.74 137.382L693.983 136.2ZM686.783 145.56L685.049 143.112C682.78 144.719 679.823 145.62 675.983 145.62V148.62V151.62C680.783 151.62 685.026 150.481 688.517 148.008L686.783 145.56ZM752.176 143.4L750.851 146.092L750.876 146.104L750.901 146.115L752.176 143.4ZM734.176 127.2L731.608 128.75L731.608 128.75L734.176 127.2ZM733.816 78.6L731.228 77.0828L731.224 77.0899L731.22 77.0969L733.816 78.6ZM750.376 62.4L751.825 65.0267L751.833 65.0225L751.841 65.0183L750.376 62.4ZM792.496 59.7L791.382 62.4854L791.409 62.4962L791.436 62.5064L792.496 59.7ZM806.356 68.88L804.172 70.9361L804.187 70.9524L804.202 70.9684L806.356 68.88ZM814.996 83.28L812.156 84.2468L812.165 84.2737L812.175 84.3004L814.996 83.28ZM816.076 107.58L817.976 109.902L818.036 109.852L818.094 109.8L816.076 107.58ZM754.696 109.2H751.696V112.2H754.696V109.2ZM754.696 94.08V91.08H751.696V94.08H754.696ZM794.656 94.08L796.548 96.4083L803.106 91.08H794.656V94.08ZM791.776 96.42H788.776V102.723L793.668 98.7483L791.776 96.42ZM784.576 79.32L782.974 81.8565L783.003 81.8748L783.033 81.8925L784.576 79.32ZM766.216 79.86L767.827 82.391L767.841 82.382L767.855 82.3728L766.216 79.86ZM760.096 87.42L757.339 86.2382L757.339 86.2382L760.096 87.42ZM763.516 120L761.395 122.121L761.429 122.156L761.464 122.189L763.516 120ZM790.156 124.5L790.684 127.453L790.724 127.446L790.764 127.438L790.156 124.5ZM800.056 121.62L801.133 124.42L801.133 124.42L800.056 121.62ZM808.156 121.08L807.119 123.895L807.185 123.919L807.253 123.941L808.156 121.08ZM813.376 125.04L810.832 126.63L810.891 126.724L810.957 126.814L813.376 125.04ZM815.536 131.34L812.54 131.49L812.54 131.498L815.536 131.34ZM813.916 138.18L816.539 139.637L816.555 139.607L816.571 139.577L813.916 138.18ZM807.976 143.22L806.78 140.469L806.754 140.48L806.729 140.492L807.976 143.22ZM794.476 147.54L793.888 144.598L793.881 144.6L793.873 144.601L794.476 147.54ZM780.256 148.98V145.98C769.796 145.98 760.89 144.179 753.452 140.685L752.176 143.4L750.901 146.115C759.302 150.061 769.116 151.98 780.256 151.98V148.98ZM752.176 143.4L753.501 140.708C746.179 137.104 740.627 132.084 736.745 125.65L734.176 127.2L731.608 128.75C736.125 136.236 742.573 142.016 750.851 146.092L752.176 143.4ZM734.176 127.2L736.745 125.65C732.871 119.231 730.876 111.566 730.876 102.54H727.876H724.876C724.876 112.474 727.081 121.249 731.608 128.75L734.176 127.2ZM727.876 102.54H730.876C730.876 93.8655 732.755 86.42 736.412 80.1031L733.816 78.6L731.22 77.0969C726.957 84.46 724.876 92.9745 724.876 102.54H727.876ZM733.816 78.6L736.404 80.1172C740.216 73.6154 745.345 68.602 751.825 65.0267L750.376 62.4L748.927 59.7733C741.487 63.878 735.577 69.6646 731.228 77.0828L733.816 78.6ZM750.376 62.4L751.841 65.0183C758.426 61.3351 765.952 59.46 774.496 59.46V56.46V53.46C765.041 53.46 756.487 55.5448 748.912 59.7817L750.376 62.4ZM774.496 56.46V59.46C780.766 59.46 786.381 60.485 791.382 62.4854L792.496 59.7L793.61 56.9146C787.811 54.595 781.427 53.46 774.496 53.46V56.46ZM792.496 59.7L791.436 62.5064C796.422 64.3901 800.654 67.1987 804.172 70.9361L806.356 68.88L808.541 66.8239C804.378 62.4013 799.37 59.0899 793.556 56.8936L792.496 59.7ZM806.356 68.88L804.202 70.9684C807.709 74.5849 810.368 78.9926 812.156 84.2468L814.996 83.28L817.836 82.3132C815.785 76.2874 812.683 71.0951 808.51 66.7916L806.356 68.88ZM814.996 83.28L812.175 84.3004C814.079 89.5653 815.056 95.5131 815.056 102.18H818.056H821.056C821.056 94.9269 819.993 88.2746 817.817 82.2596L814.996 83.28ZM818.056 102.18H815.056C815.056 104.04 814.558 104.906 814.058 105.36L816.076 107.58L818.094 109.8C820.234 107.854 821.056 105.12 821.056 102.18H818.056ZM816.076 107.58L814.176 105.258C813.653 105.686 812.4 106.2 809.776 106.2V109.2V112.2C812.913 112.2 815.859 111.634 817.976 109.902L816.076 107.58ZM809.776 109.2V106.2H754.696V109.2V112.2H809.776V109.2ZM754.696 109.2H757.696V94.08H754.696H751.696V109.2H754.696ZM754.696 94.08V97.08H794.656V94.08V91.08H754.696V94.08ZM794.656 94.08L792.764 91.7517L789.884 94.0917L791.776 96.42L793.668 98.7483L796.548 96.4083L794.656 94.08ZM791.776 96.42H794.776C794.776 91.7471 794.15 87.6964 792.727 84.4238L789.976 85.62L787.225 86.8162C788.202 89.0636 788.776 92.2129 788.776 96.42H791.776ZM789.976 85.62L792.727 84.4238C791.298 81.136 789.097 78.5339 786.12 76.7475L784.576 79.32L783.033 81.8925C784.855 82.9861 786.254 84.584 787.225 86.8162L789.976 85.62ZM784.576 79.32L786.178 76.7835C783.298 74.9643 779.821 74.16 775.936 74.16V77.16V80.16C779.011 80.16 781.295 80.7956 782.974 81.8565L784.576 79.32ZM775.936 77.16V74.16C771.712 74.16 767.886 75.1895 764.577 77.3472L766.216 79.86L767.855 82.3728C770.066 80.9305 772.721 80.16 775.936 80.16V77.16ZM766.216 79.86L764.606 77.329C761.375 79.3849 758.975 82.4191 757.339 86.2382L760.096 87.42L762.854 88.6018C764.097 85.7009 765.777 83.6951 767.827 82.391L766.216 79.86ZM760.096 87.42L757.339 86.2382C755.69 90.0845 754.936 94.7177 754.936 100.02H757.936H760.936C760.936 95.2423 761.622 91.4755 762.854 88.6018L760.096 87.42ZM757.936 100.02H754.936V101.64H757.936H760.936V100.02H757.936ZM757.936 101.64H754.936C754.936 110.484 756.849 117.575 761.395 122.121L763.516 120L765.637 117.879C762.743 114.985 760.936 109.836 760.936 101.64H757.936ZM763.516 120L761.464 122.189C766.085 126.52 772.85 128.4 781.156 128.4V125.4V122.4C773.622 122.4 768.628 120.68 765.568 117.811L763.516 120ZM781.156 125.4V128.4C784.015 128.4 787.197 128.076 790.684 127.453L790.156 124.5L789.629 121.547C786.395 122.124 783.577 122.4 781.156 122.4V125.4ZM790.156 124.5L790.764 127.438C794.394 126.687 797.851 125.682 801.133 124.42L800.056 121.62L798.979 118.82C796.021 119.958 792.878 120.873 789.548 121.562L790.156 124.5ZM800.056 121.62L801.133 124.42C803.829 123.383 805.742 123.388 807.119 123.895L808.156 121.08L809.193 118.265C806.011 117.092 802.523 117.457 798.979 118.82L800.056 121.62ZM808.156 121.08L807.253 123.941C808.893 124.459 810.033 125.351 810.832 126.63L813.376 125.04L815.92 123.45C814.319 120.889 811.979 119.141 809.06 118.219L808.156 121.08ZM813.376 125.04L810.957 126.814C811.903 128.104 812.447 129.629 812.54 131.49L815.536 131.34L818.532 131.19C818.385 128.251 817.489 125.576 815.795 123.266L813.376 125.04ZM815.536 131.34L812.54 131.498C812.628 133.171 812.243 134.918 811.261 136.783L813.916 138.18L816.571 139.577C817.989 136.882 818.684 134.069 818.532 131.182L815.536 131.34ZM813.916 138.18L811.294 136.723C810.479 138.19 809.07 139.473 806.78 140.469L807.976 143.22L809.172 145.971C812.402 144.567 814.953 142.49 816.539 139.637L813.916 138.18ZM807.976 143.22L806.729 140.492C802.752 142.31 798.474 143.681 793.888 144.598L794.476 147.54L795.064 150.482C800.078 149.479 804.801 147.97 809.223 145.948L807.976 143.22ZM794.476 147.54L793.873 144.601C789.393 145.52 784.855 145.98 780.256 145.98V148.98V151.98C785.258 151.98 790.2 151.48 795.079 150.479L794.476 147.54Z" fill="#292929" mask="url(#path-18-outside-1_10_11)"/>
<defs>
<linearGradient id="paint0_linear_10_11" x1="119" y1="40" x2="119" y2="170" gradientUnits="userSpaceOnUse">
<stop stop-color="#FFC904"/>
<stop offset="1" stop-color="#F4FF56"/>
</linearGradient>
<linearGradient id="paint1_linear_10_11" x1="120" y1="64" x2="120" y2="144" gradientUnits="userSpaceOnUse">
<stop stop-color="#FFC904"/>
<stop offset="1" stop-color="#F4FF56"/>
</linearGradient>
<linearGradient id="paint2_linear_10_11" x1="188" y1="87.5" x2="827" y2="87.5" gradientUnits="userSpaceOnUse">
<stop stop-color="#20847C"/>
<stop offset="1" stop-color="#0FC7B8"/>
</linearGradient>
<clipPath id="clip0_10_11">
<rect y="13.8974" width="197.992" height="197.992" rx="90" fill="white"/>
</clipPath>
</defs>
</svg>
