<svg width="256" height="256" viewBox="0 0 256 256" fill="none" xmlns="http://www.w3.org/2000/svg">
<g clip-path="url(#clip0_14_145)">
<path d="M94.6169 254.58C88.2339 254.58 81.9162 252.23 75.7833 249.953C69.0222 247.441 62.0417 244.846 55.0915 245.459L38.1617 246.96V181.03L47.3373 180.215C53.0965 179.713 57.9146 181.949 62.5741 184.12C66.975 186.169 71.139 188.128 75.9224 187.715L106.487 182.169C117.408 180.313 123.419 186.654 127.064 192.429L160.51 176.881C173.048 171.252 187.118 176.903 195.568 190.929C197.765 194.576 196.541 199.418 192.844 201.726C188.513 204.427 184.197 207.131 179.929 209.808C142.694 233.136 110.54 253.282 96.801 254.484C96.0729 254.549 95.3449 254.58 94.6169 254.58ZM57.2322 241.019C64.2171 241.019 70.8543 243.485 77.2959 245.878C83.9678 248.36 90.2703 250.698 96.4185 250.155C109.117 249.044 142.392 228.196 177.618 206.122C181.891 203.447 186.207 200.739 190.541 198.036C192.236 196.979 192.821 194.795 191.843 193.17C184.582 181.121 172.711 176.157 162.316 180.834L125.312 198.036L124.321 196.306C121.018 190.551 116.413 184.883 107.241 186.45L76.4874 192.02C70.3479 192.526 65.4602 190.255 60.7399 188.058C56.4107 186.039 52.3097 184.129 47.7241 184.544L42.5105 185.007V242.21L54.709 241.127C55.5544 241.053 56.3955 241.019 57.2322 241.019Z" fill="#20847C"/>
<path d="M86.0432 222.496C85.0283 222.496 84.1199 221.783 83.9156 220.748C83.6809 219.571 84.4437 218.427 85.6216 218.191C97.7267 215.772 111.338 210.234 127.179 201.285L124.323 196.306C123.726 195.265 124.086 193.935 125.125 193.339C126.166 192.746 127.496 193.104 128.092 194.141L132.032 201.011C132.627 202.052 132.269 203.38 131.232 203.975C114.165 213.8 99.5262 219.844 86.4714 222.452C86.3279 222.483 86.1845 222.496 86.0432 222.496Z" fill="#20847C"/>
<path d="M34.8605 254.58H8.75515C4.53682 254.58 1.10522 251.148 1.10522 246.93L1.10522 176.759C1.10522 172.543 4.53682 169.109 8.75515 169.109H34.8605C39.0788 169.109 42.5104 172.541 42.5104 176.759V246.93C42.5083 251.148 39.0767 254.58 34.8605 254.58ZM8.75515 173.458C6.93394 173.458 5.45177 174.94 5.45177 176.761L5.45177 246.93C5.45177 248.751 6.93394 250.233 8.75515 250.233H34.8605C36.6817 250.233 38.1639 248.751 38.1639 246.93V176.759C38.1639 174.938 36.6817 173.456 34.8605 173.456L8.75515 173.458Z" fill="#20847C"/>
<path d="M3.37903 183L4.1987 186.947L4.8521 189.788L5.82639 193.26L7.12155 197.361L8.25045 200.357L9.37935 203.353L11.3046 207.134L13.2299 210.914L15.9515 215.48L21.7041 223.659L27.9204 230.413L34.7669 236.845C34.7669 236.845 39.4179 240.28 42.3981 242.481L45.4173 244.514L47.1647 245.608L48.912 246.702" stroke="#20847C" stroke-width="3.5"/>
</g>
<g clip-path="url(#clip1_14_145)">
<path d="M161.276 1.30969C167.659 1.30969 173.977 3.65899 180.11 5.93658C186.871 8.44889 193.852 11.0438 200.802 10.4309L217.731 8.92918L217.731 74.8598L208.556 75.6747C202.797 76.1768 197.979 73.9405 193.319 71.7694C188.918 69.72 184.754 67.7618 179.971 68.1748L149.406 73.721C138.485 75.5769 132.474 69.2353 128.829 63.4609L95.3827 79.0085C82.8451 84.6373 68.7753 78.9868 60.3256 64.9605C58.1285 61.3137 59.352 56.4717 63.0488 54.1637C67.3801 51.4623 71.6962 48.7588 75.9645 46.0813C113.199 22.7534 145.353 2.60713 159.092 1.40531C159.82 1.34011 160.548 1.30969 161.276 1.30969ZM198.661 14.8709C191.676 14.8709 185.039 12.4042 178.597 10.0115C171.925 7.52959 165.623 5.19116 159.475 5.73448C146.776 6.84502 113.501 27.6932 78.2747 49.7671C74.0021 52.4424 69.6859 55.1504 65.3524 57.8539C63.6573 58.9101 63.0727 61.0943 64.0506 62.7199C71.3115 74.7685 83.182 79.7322 93.5767 75.0554L130.581 57.8539L131.572 59.5838C134.875 65.3387 139.481 71.0065 148.652 69.4396L179.406 63.8695C185.545 63.3631 190.433 65.6342 195.153 67.8314C199.482 69.8504 203.583 71.7607 208.169 71.3456L213.383 70.8827L213.383 13.68L201.184 14.7623C200.339 14.8361 199.498 14.8709 198.661 14.8709Z" fill="#20847C"/>
<path d="M169.85 33.3937C170.865 33.3937 171.773 34.1066 171.977 35.141C172.212 36.3189 171.449 37.4621 170.271 37.699C158.166 40.1178 144.555 45.6553 128.714 54.6049L131.57 59.5838C132.167 60.6248 131.807 61.9549 130.768 62.5503C129.727 63.1436 128.397 62.7851 127.801 61.7484L123.861 54.8787C123.266 53.8377 123.624 52.5098 124.661 51.9144C141.728 42.089 156.367 36.0451 169.422 33.4372C169.565 33.4067 169.709 33.3937 169.85 33.3937Z" fill="#20847C"/>
<path d="M221.033 0.315076L247.138 0.315076C251.356 0.315076 254.788 3.5 254.788 8.04257C254.788 35.7238 254.788 78.9248 254.788 78.9248C254.788 83.1837 251.356 86.6523 247.138 86.6523L221.033 86.6523C216.814 86.6523 213.383 83.1859 213.383 78.9248L213.383 8.04257C213.385 3.78147 216.817 0.315076 221.033 0.315076ZM247.138 82.2595C248.959 82.2595 250.441 80.7623 250.441 78.9226L250.441 8.04257C250.441 6.2029 248.959 4.7057 247.138 4.7057L221.033 4.7057C219.211 4.7057 217.729 6.2029 217.729 8.04257L217.729 78.9248C217.729 80.7645 219.211 82.2617 221.033 82.2617L247.138 82.2595Z" fill="#20847C"/>
<path d="M207 11L210.5 13L213 14.5L216 16.5L219.5 19L222 21L224.5 23L227.5 26L230.5 29L234 33L240 41L244.5 49L248.5 57.5C248.5 57.5 250.328 62.9853 251.5 66.5L252.5 70L253 72L253.5 74" stroke="#20847C" stroke-width="6"/>
</g>
<path d="M129.823 174.762L129.984 174.965C173.898 157.238 190.819 116.143 171.481 98.4158C152.142 80.6883 129.984 104.86 129.984 104.86H129.823C129.823 104.86 107.665 80.6883 88.3263 98.4158C68.9886 116.141 85.9098 157.035 129.823 174.762Z" fill="url(#paint0_linear_14_145)"/>
<defs>
<linearGradient id="paint0_linear_14_145" x1="129.904" y1="91.9191" x2="129.904" y2="174.965" gradientUnits="userSpaceOnUse">
<stop stop-color="#20847C"/>
<stop offset="1" stop-color="#0FC7B8"/>
</linearGradient>
<clipPath id="clip0_14_145">
<rect y="57.8974" width="197.992" height="197.992" rx="90" fill="white"/>
</clipPath>
<clipPath id="clip1_14_145">
<rect x="255.893" y="197.992" width="197.992" height="197.992" rx="90" transform="rotate(-180 255.893 197.992)" fill="white"/>
</clipPath>
</defs>
</svg>
